<?xml version="1.0" encoding="UTF-8"?>
<svg version="1.1" xmlns="http://www.w3.org/2000/svg" width="693" height="182">
<path d="M0 0 C1.68171074 -0.00872064 1.68171074 -0.00872064 3.39739543 -0.01761746 C7.1753659 -0.03228063 10.95269314 -0.01830196 14.73065948 -0.00457001 C17.45806728 -0.00695895 20.18544916 -0.01536304 22.91284513 -0.02347898 C28.85361682 -0.0379375 34.79424317 -0.03748037 40.73502159 -0.02729034 C49.56904376 -0.01217871 58.402943 -0.01988578 67.2369643 -0.03212357 C83.01321659 -0.05320434 98.78940416 -0.05135391 114.56566264 -0.03980792 C128.37155863 -0.02975333 142.17743087 -0.02711533 155.98332977 -0.0318985 C156.89842181 -0.03220404 157.81351384 -0.03250958 158.75633594 -0.03282438 C162.47081279 -0.03406969 166.18528963 -0.03534329 169.89976646 -0.03666343 C204.75812691 -0.04890474 239.61644608 -0.03779718 274.47480016 -0.01627585 C305.45744758 0.00270717 336.44002924 0.00100868 367.42267609 -0.01811981 C402.21649386 -0.03952939 437.01027516 -0.04803666 471.80409861 -0.03567076 C475.51188309 -0.03438785 479.21966759 -0.03313649 482.92745209 -0.0318985 C483.84043101 -0.03158219 484.75340994 -0.03126588 485.6940549 -0.03093999 C499.49267898 -0.02638639 513.29127672 -0.03171808 527.08989716 -0.04181671 C542.77652416 -0.05323972 558.46307621 -0.05042445 574.14969385 -0.02869374 C582.93345617 -0.01692761 591.71705626 -0.01621194 600.50081446 -0.03127843 C606.36328221 -0.04022679 612.2256195 -0.03470431 618.08806787 -0.01725936 C621.43157286 -0.00771627 624.7744884 -0.00673038 628.11802524 -0.01888329 C631.71592558 -0.0309627 635.31292917 -0.01865695 638.91078186 0 C639.95377703 -0.00936466 640.9967722 -0.01872933 642.07137328 -0.02837777 C649.59572959 0.05015746 652.94923739 1.48420958 658.2980423 6.85614777 C661.45945954 12.1249549 660.50963456 18.92957812 660.47296906 24.85883331 C660.47839322 26.32780398 660.48551753 27.79676921 660.49420929 29.26572418 C660.5124109 33.24511993 660.5053884 37.22409984 660.49269295 41.20350266 C660.48254879 45.37272238 660.49196255 49.54190708 660.49823761 53.71112823 C660.50550991 60.71192552 660.49593734 67.71255388 660.47687531 74.7133255 C660.45510728 82.80118313 660.46215895 90.88863739 660.48418093 98.97648525 C660.50234689 105.92699601 660.50488743 112.8773855 660.49442625 119.82791233 C660.48819787 123.97633791 660.48733756 128.12457404 660.5005722 132.27298737 C660.51214761 136.1736039 660.50407467 140.07370161 660.48099518 143.97426224 C660.47571703 145.40368921 660.47720661 146.83316004 660.48604584 148.26256943 C660.55411538 160.39061769 660.55411538 160.39061769 658.2980423 164.15058136 C652.94923739 169.52251955 649.59572959 170.95657167 642.07137328 171.0351069 C641.02837811 171.02574223 639.98538294 171.01637757 638.91078186 171.00672913 C637.22907112 171.01544977 637.22907112 171.01544977 635.51338643 171.02434659 C631.73541596 171.03900976 627.95808872 171.02503109 624.18012238 171.01129913 C621.45271458 171.01368808 618.7253327 171.02209217 615.99793673 171.03020811 C610.05716504 171.04466663 604.11653869 171.04420949 598.17576027 171.03401947 C589.3417381 171.01890784 580.50783886 171.02661491 571.67381756 171.0388527 C555.89756527 171.05993346 540.1213777 171.05808303 524.34511922 171.04653705 C510.53922323 171.03648246 496.73335099 171.03384445 482.92745209 171.03862762 C482.01236005 171.03893316 481.09726802 171.03923871 480.15444592 171.0395535 C476.43996907 171.04079882 472.72549223 171.04207242 469.0110154 171.04339256 C434.15265495 171.05563387 399.29433578 171.0445263 364.4359817 171.02300497 C333.45333428 171.00402196 302.47075262 171.00572044 271.48810577 171.02484894 C236.694288 171.04625852 201.9005067 171.05476579 167.10668325 171.04239988 C163.39889877 171.04111698 159.69111427 171.03986562 155.98332977 171.03862762 C155.07035085 171.03831132 154.15737192 171.03799501 153.21672696 171.03766911 C139.41810288 171.03311552 125.61950514 171.0384472 111.8208847 171.04854584 C96.1342577 171.05996885 80.44770565 171.05715357 64.76108801 171.03542286 C55.97732569 171.02365673 47.1937256 171.02294107 38.4099674 171.03800756 C32.54749965 171.04695592 26.68516236 171.04143344 20.82271399 171.02398848 C17.479209 171.0144454 14.13629346 171.0134595 10.79275662 171.02561241 C7.19485628 171.03769182 3.59785269 171.02538608 0 171.00672913 C-1.04299517 171.01609379 -2.08599034 171.02545846 -3.16059142 171.0351069 C-10.68494773 170.95657167 -14.03845553 169.52251955 -19.38726044 164.15058136 C-22.54867767 158.88177422 -21.5988527 152.07715101 -21.56218719 146.14789581 C-21.56761136 144.67892514 -21.57473567 143.20995991 -21.58342743 141.74100494 C-21.60162904 137.7616092 -21.59460654 133.78262928 -21.58191109 129.80322647 C-21.57176693 125.63400675 -21.58118069 121.46482205 -21.58745575 117.29560089 C-21.59472805 110.29480361 -21.58515548 103.29417525 -21.56609344 96.29340363 C-21.54432542 88.20554599 -21.55137709 80.11809173 -21.57339907 72.03024387 C-21.59156503 65.07973312 -21.59410557 58.12934363 -21.58364439 51.1788168 C-21.57741601 47.03039121 -21.5765557 42.88215509 -21.58979034 38.73374176 C-21.60136575 34.83312522 -21.59329281 30.93302752 -21.57021332 27.03246689 C-21.56493517 25.60303991 -21.56642475 24.17356909 -21.57526398 22.7441597 C-21.64333352 10.61611144 -21.64333352 10.61611144 -19.38726044 6.85614777 C-13.06772359 0.50927928 -8.77361343 -0.078775 0 0 Z " fill="#FEF4EA" transform="translate(27.04460906982422,5.496635437011719)"/>
<path d="M0 0 C0.73962762 -0.00187569 1.47925524 -0.00375137 2.24129581 -0.0056839 C4.71117894 -0.00935206 7.18077664 0.00144321 9.65063477 0.01245117 C11.40889465 0.01330912 13.16715506 0.01338854 14.92541504 0.01274109 C19.66471981 0.01389766 24.40389974 0.02828647 29.1431694 0.04568481 C32.08439091 0.05539467 35.02559349 0.06124593 37.96682739 0.06567383 C74.86776331 0.12130281 111.76029651 0.55432699 148.65454102 1.24291992 C148.32454102 2.23291992 147.99454102 3.22291992 147.65454102 4.24291992 C146.99454102 4.24291992 146.33454102 4.24291992 145.65454102 4.24291992 C145.65454102 4.90291992 145.65454102 5.56291992 145.65454102 6.24291992 C144.99454102 6.24291992 144.33454102 6.24291992 143.65454102 6.24291992 C143.65454102 6.90291992 143.65454102 7.56291992 143.65454102 8.24291992 C142.99454102 8.24291992 142.33454102 8.24291992 141.65454102 8.24291992 C141.65454102 8.90291992 141.65454102 9.56291992 141.65454102 10.24291992 C140.16972351 11.70031738 140.16972351 11.70031738 138.12597656 13.3894043 C133.86992412 17.01042298 129.98686968 20.87859422 126.11157227 24.89916992 C124.693728 26.34914742 123.27508279 27.79834207 121.85571289 29.24682617 C119.66101521 31.49070818 117.47125711 33.73853844 115.29492188 36.00024414 C104.31427022 47.39209567 93.62082934 58.06291908 76.96313477 59.57885742 C62.85454582 59.72122462 48.93996145 57.21514577 38.38110352 47.05541992 C37.52645508 46.15823242 37.52645508 46.15823242 36.65454102 45.24291992 C33.76834797 46.58089021 31.43567177 48.12024388 28.96704102 50.11791992 C24.81130535 53.29082798 20.53143549 55.39942029 15.65454102 57.24291992 C14.27395508 57.78432617 14.27395508 57.78432617 12.86547852 58.33666992 C9.15851431 59.38291773 5.72099936 59.537126 1.90454102 59.49291992 C0.58969727 59.49807617 -0.72514648 59.50323242 -2.07983398 59.50854492 C-5.34903599 59.39976918 -8.41059403 58.89144664 -11.61206055 58.22631836 C-12.94651215 57.95147614 -12.94651215 57.95147614 -14.30792236 57.67108154 C-14.98030945 57.52978821 -15.65269653 57.38849487 -16.34545898 57.24291992 C-16.47244049 50.37463158 -16.55988644 43.50664694 -16.62011719 36.63745117 C-16.64523079 34.30172412 -16.67932826 31.96607541 -16.72265625 29.63061523 C-16.7834439 26.26941578 -16.8117011 22.90925707 -16.83374023 19.54760742 C-16.85954666 18.50675995 -16.88535309 17.46591248 -16.91194153 16.39352417 C-16.91506659 8.27945499 -16.91506659 8.27945499 -14.06494141 4.66137695 C-9.43180492 0.54109236 -6.10777377 -0.0497021 0 0 Z " fill="#F6E4D5" transform="translate(23.345458984375,5.757080078125)"/>
<path d="M0 0 C27.72 0 55.44 0 84 0 C77.25 7.875 77.25 7.875 74.10595703 11.00756836 C73.4056839 11.70776596 72.70541077 12.40796356 71.98391724 13.12937927 C71.24930267 13.85883255 70.51468811 14.58828583 69.7578125 15.33984375 C68.98944061 16.10680069 68.22106873 16.87375763 67.42941284 17.66395569 C64.99696491 20.0908474 62.56104678 22.51422127 60.125 24.9375 C58.46591448 26.59156486 56.80705798 28.24585945 55.1484375 29.90039062 C51.10160291 33.93625433 47.05192047 37.96924277 43 42 C39.6909586 40.55540705 37.50898859 38.75720725 34.96582031 36.20874023 C34.18531311 35.43130966 33.40480591 34.65387909 32.60064697 33.85289001 C31.76821472 33.01327225 30.93578247 32.17365448 30.078125 31.30859375 C28.78814606 30.01792747 28.78814606 30.01792747 27.47210693 28.70118713 C25.65758061 26.88364161 23.84548347 25.06366816 22.03564453 23.24145508 C19.25216706 20.43968131 16.46073067 17.64603183 13.66796875 14.85351562 C11.90838058 13.0890138 10.14924998 11.32405555 8.390625 9.55859375 C7.55009583 8.71695175 6.70956665 7.87530975 5.84356689 7.00816345 C5.07566833 6.23388504 4.30776978 5.45960663 3.51660156 4.66186523 C2.83583557 3.97728745 2.15506958 3.29270966 1.45367432 2.58738708 C0 1 0 1 0 0 Z " fill="#EED7C4" transform="translate(17,7)"/>
</svg>
