<?xml version="1.0" encoding="UTF-8"?>
<svg version="1.1" xmlns="http://www.w3.org/2000/svg" width="693" height="182">
<path d="M0 0 C1.68171074 -0.00872064 1.68171074 -0.00872064 3.39739543 -0.01761746 C7.1753659 -0.03228063 10.95269314 -0.01830196 14.73065948 -0.00457001 C17.45806728 -0.00695895 20.18544916 -0.01536304 22.91284513 -0.02347898 C28.85361682 -0.0379375 34.79424317 -0.03748037 40.73502159 -0.02729034 C49.56904376 -0.01217871 58.402943 -0.01988578 67.2369643 -0.03212357 C83.01321659 -0.05320434 98.78940416 -0.05135391 114.56566264 -0.03980792 C128.37155863 -0.02975333 142.17743087 -0.02711533 155.98332977 -0.0318985 C156.89842181 -0.03220404 157.81351384 -0.03250958 158.75633594 -0.03282438 C162.47081279 -0.03406969 166.18528963 -0.03534329 169.89976646 -0.03666343 C204.75812691 -0.04890474 239.61644608 -0.03779718 274.47480016 -0.01627585 C305.45744758 0.00270717 336.44002924 0.00100868 367.42267609 -0.01811981 C402.21649386 -0.03952939 437.01027516 -0.04803666 471.80409861 -0.03567076 C475.51188309 -0.03438785 479.21966759 -0.03313649 482.92745209 -0.0318985 C483.84043101 -0.03158219 484.75340994 -0.03126588 485.6940549 -0.03093999 C499.49267898 -0.02638639 513.29127672 -0.03171808 527.08989716 -0.04181671 C542.77652416 -0.05323972 558.46307621 -0.05042445 574.14969385 -0.02869374 C582.93345617 -0.01692761 591.71705626 -0.01621194 600.50081446 -0.03127843 C606.36328221 -0.04022679 612.2256195 -0.03470431 618.08806787 -0.01725936 C621.43157286 -0.00771627 624.7744884 -0.00673038 628.11802524 -0.01888329 C631.71592558 -0.0309627 635.31292917 -0.01865695 638.91078186 0 C639.95377703 -0.00936466 640.9967722 -0.01872933 642.07137328 -0.02837777 C649.59572959 0.05015746 652.94923739 1.48420958 658.2980423 6.85614777 C661.45945954 12.1249549 660.50963456 18.92957812 660.47296906 24.85883331 C660.47839322 26.32780398 660.48551753 27.79676921 660.49420929 29.26572418 C660.5124109 33.24511993 660.5053884 37.22409984 660.49269295 41.20350266 C660.48254879 45.37272238 660.49196255 49.54190708 660.49823761 53.71112823 C660.50550991 60.71192552 660.49593734 67.71255388 660.47687531 74.7133255 C660.45510728 82.80118313 660.46215895 90.88863739 660.48418093 98.97648525 C660.50234689 105.92699601 660.50488743 112.8773855 660.49442625 119.82791233 C660.48819787 123.97633791 660.48733756 128.12457404 660.5005722 132.27298737 C660.51214761 136.1736039 660.50407467 140.07370161 660.48099518 143.97426224 C660.47571703 145.40368921 660.47720661 146.83316004 660.48604584 148.26256943 C660.55411538 160.39061769 660.55411538 160.39061769 658.2980423 164.15058136 C652.94923739 169.52251955 649.59572959 170.95657167 642.07137328 171.0351069 C641.02837811 171.02574223 639.98538294 171.01637757 638.91078186 171.00672913 C637.22907112 171.01544977 637.22907112 171.01544977 635.51338643 171.02434659 C631.73541596 171.03900976 627.95808872 171.02503109 624.18012238 171.01129913 C621.45271458 171.01368808 618.7253327 171.02209217 615.99793673 171.03020811 C610.05716504 171.04466663 604.11653869 171.04420949 598.17576027 171.03401947 C589.3417381 171.01890784 580.50783886 171.02661491 571.67381756 171.0388527 C555.89756527 171.05993346 540.1213777 171.05808303 524.34511922 171.04653705 C510.53922323 171.03648246 496.73335099 171.03384445 482.92745209 171.03862762 C482.01236005 171.03893316 481.09726802 171.03923871 480.15444592 171.0395535 C476.43996907 171.04079882 472.72549223 171.04207242 469.0110154 171.04339256 C434.15265495 171.05563387 399.29433578 171.0445263 364.4359817 171.02300497 C333.45333428 171.00402196 302.47075262 171.00572044 271.48810577 171.02484894 C236.694288 171.04625852 201.9005067 171.05476579 167.10668325 171.04239988 C163.39889877 171.04111698 159.69111427 171.03986562 155.98332977 171.03862762 C155.07035085 171.03831132 154.15737192 171.03799501 153.21672696 171.03766911 C139.41810288 171.03311552 125.61950514 171.0384472 111.8208847 171.04854584 C96.1342577 171.05996885 80.44770565 171.05715357 64.76108801 171.03542286 C55.97732569 171.02365673 47.1937256 171.02294107 38.4099674 171.03800756 C32.54749965 171.04695592 26.68516236 171.04143344 20.82271399 171.02398848 C17.479209 171.0144454 14.13629346 171.0134595 10.79275662 171.02561241 C7.19485628 171.03769182 3.59785269 171.02538608 0 171.00672913 C-1.04299517 171.01609379 -2.08599034 171.02545846 -3.16059142 171.0351069 C-10.68494773 170.95657167 -14.03845553 169.52251955 -19.38726044 164.15058136 C-22.54867767 158.88177422 -21.5988527 152.07715101 -21.56218719 146.14789581 C-21.56761136 144.67892514 -21.57473567 143.20995991 -21.58342743 141.74100494 C-21.60162904 137.7616092 -21.59460654 133.78262928 -21.58191109 129.80322647 C-21.57176693 125.63400675 -21.58118069 121.46482205 -21.58745575 117.29560089 C-21.59472805 110.29480361 -21.58515548 103.29417525 -21.56609344 96.29340363 C-21.54432542 88.20554599 -21.55137709 80.11809173 -21.57339907 72.03024387 C-21.59156503 65.07973312 -21.59410557 58.12934363 -21.58364439 51.1788168 C-21.57741601 47.03039121 -21.5765557 42.88215509 -21.58979034 38.73374176 C-21.60136575 34.83312522 -21.59329281 30.93302752 -21.57021332 27.03246689 C-21.56493517 25.60303991 -21.56642475 24.17356909 -21.57526398 22.7441597 C-21.64333352 10.61611144 -21.64333352 10.61611144 -19.38726044 6.85614777 C-13.06772359 0.50927928 -8.77361343 -0.078775 0 0 Z " fill="#EBF9F3" transform="translate(27.04460906982422,5.496635437011719)"/>
<path d="M0 0 C0.67549499 -0.00085442 1.35098998 -0.00170885 2.04695451 -0.00258917 C4.32099227 -0.00424241 6.59495702 0.00127486 8.86898804 0.00672913 C10.49487812 0.00701106 12.12076832 0.00685315 13.74665833 0.00628662 C18.16996362 0.00599888 22.59324198 0.01189188 27.016541 0.01886058 C31.63568009 0.02509796 36.25481975 0.02569822 40.8739624 0.02688599 C49.62518729 0.02999816 58.37639974 0.03821003 67.12761915 0.04823548 C77.08878023 0.05940012 87.0499419 0.06490795 97.01110768 0.06993091 C117.50589637 0.08039273 138.00067384 0.09798999 158.49545288 0.12025452 C157.56180052 1.22019682 156.62658338 2.31881099 155.69073486 3.41688538 C155.17010908 4.02882248 154.6494833 4.64075958 154.11308098 5.27124023 C151.55278139 8.19776613 148.81928854 10.93924888 146.06576538 13.68275452 C145.4717392 14.27773743 144.87771301 14.87272034 144.26568604 15.48573303 C143.01814446 16.73395005 141.76935949 17.98092551 140.51937866 19.22669983 C138.62874487 21.11198598 136.74349941 23.00254103 134.85873413 24.89369202 C129.43303647 30.32185312 124.01760699 35.67595312 118.16439819 40.64759827 C115.90873146 42.63797008 113.88255985 44.80751105 111.83016968 47.00379944 C101.99843297 57.44420501 91.02693423 63.90758432 76.49545288 64.49525452 C63.77566582 64.25888217 50.58519916 60.96552678 41.22982788 51.93275452 C40.65748413 51.33462952 40.08514038 50.73650452 39.49545288 50.12025452 C36.60925983 51.4582248 34.27658363 52.99757848 31.80795288 54.99525452 C27.63329455 58.17668559 23.38646616 60.26041766 18.49545288 62.12025452 C16.88670288 62.73900452 16.88670288 62.73900452 15.24545288 63.37025452 C6.07861583 65.20362193 -3.48321603 64.47888497 -12.50454712 62.12025452 C-14.1712606 60.45354104 -13.66603419 58.43637659 -13.69741821 56.14491272 C-13.71348114 55.0832338 -13.72954407 54.02155487 -13.74609375 52.92770386 C-13.79042741 48.05284634 -13.83163036 43.17812785 -13.85464478 38.30311584 C-13.87118933 35.73173462 -13.89845909 33.1603991 -13.93667603 30.58924866 C-13.99145209 26.88710089 -14.01332375 23.18603428 -14.02798462 19.48353577 C-14.05065399 18.33645645 -14.07332336 17.18937714 -14.09667969 16.00753784 C-14.07310946 7.09695192 -14.07310946 7.09695192 -11.09683228 3.41004944 C-7.159978 -0.06741866 -5.19666886 -0.00394284 0 0 Z " fill="#CFF1E6" transform="translate(20.504547119140625,6.8797454833984375)"/>
<path d="M0 0 C30.69 0 61.38 0 93 0 C86.25 7.875 86.25 7.875 82.55517578 11.55834961 C81.32457932 12.78883278 81.32457932 12.78883278 80.06912231 14.04417419 C79.20326508 14.90487015 78.33740784 15.7655661 77.4453125 16.65234375 C76.54376434 17.55247696 75.64221619 18.45261017 74.71334839 19.38002014 C72.33801783 21.75072823 69.96054595 24.11924515 67.58197021 26.48669434 C65.14655283 28.91180728 62.71403088 31.33982085 60.28125 33.76757812 C55.52347231 38.51437128 50.7628462 43.25829281 46 48 C42.51027997 46.50469676 40.26534605 44.50808338 37.59863281 41.82568359 C36.7380426 40.96494232 35.87745239 40.10420105 34.99078369 39.21737671 C34.07085632 38.28712677 33.15092896 37.35687683 32.203125 36.3984375 C31.24520903 35.43678914 30.28684886 34.47558306 29.32806396 33.51480103 C26.81164875 30.99076718 24.30129893 28.46078409 21.79217529 25.92950439 C19.22837559 23.3452081 16.65887082 20.76659801 14.08984375 18.1875 C9.05430543 13.13054303 4.0251544 8.06727744 -1 3 C-0.67 2.01 -0.34 1.02 0 0 Z " fill="#B9EBDC" transform="translate(14,7)"/>
</svg>
