<?xml version="1.0" encoding="UTF-8"?>
<svg version="1.1" xmlns="http://www.w3.org/2000/svg" width="693" height="182">
<path d="M0 0 C1.68171074 -0.00872064 1.68171074 -0.00872064 3.39739543 -0.01761746 C7.1753659 -0.03228063 10.95269314 -0.01830196 14.73065948 -0.00457001 C17.45806728 -0.00695895 20.18544916 -0.01536304 22.91284513 -0.02347898 C28.85361682 -0.0379375 34.79424317 -0.03748037 40.73502159 -0.02729034 C49.56904376 -0.01217871 58.402943 -0.01988578 67.2369643 -0.03212357 C83.01321659 -0.05320434 98.78940416 -0.05135391 114.56566264 -0.03980792 C128.37155863 -0.02975333 142.17743087 -0.02711533 155.98332977 -0.0318985 C156.89842181 -0.03220404 157.81351384 -0.03250958 158.75633594 -0.03282438 C162.47081279 -0.03406969 166.18528963 -0.03534329 169.89976646 -0.03666343 C204.75812691 -0.04890474 239.61644608 -0.03779718 274.47480016 -0.01627585 C305.45744758 0.00270717 336.44002924 0.00100868 367.42267609 -0.01811981 C402.21649386 -0.03952939 437.01027516 -0.04803666 471.80409861 -0.03567076 C475.51188309 -0.03438785 479.21966759 -0.03313649 482.92745209 -0.0318985 C483.84043101 -0.03158219 484.75340994 -0.03126588 485.6940549 -0.03093999 C499.49267898 -0.02638639 513.29127672 -0.03171808 527.08989716 -0.04181671 C542.77652416 -0.05323972 558.46307621 -0.05042445 574.14969385 -0.02869374 C582.93345617 -0.01692761 591.71705626 -0.01621194 600.50081446 -0.03127843 C606.36328221 -0.04022679 612.2256195 -0.03470431 618.08806787 -0.01725936 C621.43157286 -0.00771627 624.7744884 -0.00673038 628.11802524 -0.01888329 C631.71592558 -0.0309627 635.31292917 -0.01865695 638.91078186 0 C639.95377703 -0.00936466 640.9967722 -0.01872933 642.07137328 -0.02837777 C649.59572959 0.05015746 652.94923739 1.48420958 658.2980423 6.85614777 C661.45945954 12.1249549 660.50963456 18.92957812 660.47296906 24.85883331 C660.47839322 26.32780398 660.48551753 27.79676921 660.49420929 29.26572418 C660.5124109 33.24511993 660.5053884 37.22409984 660.49269295 41.20350266 C660.48254879 45.37272238 660.49196255 49.54190708 660.49823761 53.71112823 C660.50550991 60.71192552 660.49593734 67.71255388 660.47687531 74.7133255 C660.45510728 82.80118313 660.46215895 90.88863739 660.48418093 98.97648525 C660.50234689 105.92699601 660.50488743 112.8773855 660.49442625 119.82791233 C660.48819787 123.97633791 660.48733756 128.12457404 660.5005722 132.27298737 C660.51214761 136.1736039 660.50407467 140.07370161 660.48099518 143.97426224 C660.47571703 145.40368921 660.47720661 146.83316004 660.48604584 148.26256943 C660.55411538 160.39061769 660.55411538 160.39061769 658.2980423 164.15058136 C652.94923739 169.52251955 649.59572959 170.95657167 642.07137328 171.0351069 C641.02837811 171.02574223 639.98538294 171.01637757 638.91078186 171.00672913 C637.22907112 171.01544977 637.22907112 171.01544977 635.51338643 171.02434659 C631.73541596 171.03900976 627.95808872 171.02503109 624.18012238 171.01129913 C621.45271458 171.01368808 618.7253327 171.02209217 615.99793673 171.03020811 C610.05716504 171.04466663 604.11653869 171.04420949 598.17576027 171.03401947 C589.3417381 171.01890784 580.50783886 171.02661491 571.67381756 171.0388527 C555.89756527 171.05993346 540.1213777 171.05808303 524.34511922 171.04653705 C510.53922323 171.03648246 496.73335099 171.03384445 482.92745209 171.03862762 C482.01236005 171.03893316 481.09726802 171.03923871 480.15444592 171.0395535 C476.43996907 171.04079882 472.72549223 171.04207242 469.0110154 171.04339256 C434.15265495 171.05563387 399.29433578 171.0445263 364.4359817 171.02300497 C333.45333428 171.00402196 302.47075262 171.00572044 271.48810577 171.02484894 C236.694288 171.04625852 201.9005067 171.05476579 167.10668325 171.04239988 C163.39889877 171.04111698 159.69111427 171.03986562 155.98332977 171.03862762 C155.07035085 171.03831132 154.15737192 171.03799501 153.21672696 171.03766911 C139.41810288 171.03311552 125.61950514 171.0384472 111.8208847 171.04854584 C96.1342577 171.05996885 80.44770565 171.05715357 64.76108801 171.03542286 C55.97732569 171.02365673 47.1937256 171.02294107 38.4099674 171.03800756 C32.54749965 171.04695592 26.68516236 171.04143344 20.82271399 171.02398848 C17.479209 171.0144454 14.13629346 171.0134595 10.79275662 171.02561241 C7.19485628 171.03769182 3.59785269 171.02538608 0 171.00672913 C-1.04299517 171.01609379 -2.08599034 171.02545846 -3.16059142 171.0351069 C-10.68494773 170.95657167 -14.03845553 169.52251955 -19.38726044 164.15058136 C-22.54867767 158.88177422 -21.5988527 152.07715101 -21.56218719 146.14789581 C-21.56761136 144.67892514 -21.57473567 143.20995991 -21.58342743 141.74100494 C-21.60162904 137.7616092 -21.59460654 133.78262928 -21.58191109 129.80322647 C-21.57176693 125.63400675 -21.58118069 121.46482205 -21.58745575 117.29560089 C-21.59472805 110.29480361 -21.58515548 103.29417525 -21.56609344 96.29340363 C-21.54432542 88.20554599 -21.55137709 80.11809173 -21.57339907 72.03024387 C-21.59156503 65.07973312 -21.59410557 58.12934363 -21.58364439 51.1788168 C-21.57741601 47.03039121 -21.5765557 42.88215509 -21.58979034 38.73374176 C-21.60136575 34.83312522 -21.59329281 30.93302752 -21.57021332 27.03246689 C-21.56493517 25.60303991 -21.56642475 24.17356909 -21.57526398 22.7441597 C-21.64333352 10.61611144 -21.64333352 10.61611144 -19.38726044 6.85614777 C-13.06772359 0.50927928 -8.77361343 -0.078775 0 0 Z " fill="#E9F3FD" transform="translate(27.04460906982422,5.496635437011719)"/>
<path d="M0 0 C0.65507723 -0.00085442 1.31015445 -0.00170885 1.98508251 -0.00258917 C4.19002343 -0.00424219 6.39488903 0.00127451 8.599823 0.00672913 C10.17645262 0.00701106 11.75308237 0.00685314 13.32971191 0.00628662 C17.61872432 0.0059989 21.90770895 0.01189161 26.19671488 0.01886058 C30.67571784 0.02509826 35.15472139 0.02569824 39.63372803 0.02688599 C48.11933335 0.02999808 56.60492584 0.03820983 65.09052551 0.04823548 C74.74939483 0.0594004 84.40826475 0.06490802 94.06713891 0.06993091 C113.93985718 0.08039253 133.81256389 0.09798962 153.68527222 0.12025452 C147.43785191 7.48964041 147.43785191 7.48964041 144.19015503 10.76063538 C143.57642029 11.38074997 142.96268555 12.00086456 142.33035278 12.63977051 C141.68950745 13.28172867 141.04866211 13.92368683 140.38839722 14.58509827 C139.71355286 15.26327103 139.0387085 15.94144379 138.34341431 16.64016724 C136.92953985 18.05906828 135.51434072 19.47665048 134.09786987 20.89295959 C131.92229134 23.07074858 129.7548624 25.25644297 127.58761597 27.44252014 C126.20919856 28.8238675 124.83030931 30.20474421 123.45089722 31.58509827 C122.80195496 32.24122604 122.1530127 32.89735382 121.48440552 33.57336426 C120.58271637 34.47043846 120.58271637 34.47043846 119.66281128 35.38563538 C119.13463806 35.91523361 118.60646484 36.44483185 118.06228638 36.99047852 C116.68527222 38.12025452 116.68527222 38.12025452 114.68527222 38.12025452 C114.68527222 38.78025452 114.68527222 39.44025452 114.68527222 40.12025452 C114.02527222 40.12025452 113.36527222 40.12025452 112.68527222 40.12025452 C112.68527222 40.78025452 112.68527222 41.44025452 112.68527222 42.12025452 C112.02527222 42.12025452 111.36527222 42.12025452 110.68527222 42.12025452 C110.68527222 42.78025452 110.68527222 43.44025452 110.68527222 44.12025452 C110.02527222 44.12025452 109.36527222 44.12025452 108.68527222 44.12025452 C108.68527222 44.78025452 108.68527222 45.44025452 108.68527222 46.12025452 C96.00802384 56.66730952 83.26083792 60.25385718 67.01339722 59.3629303 C56.86292106 58.30487941 46.67703892 52.4594382 39.68527222 45.12025452 C37.36094121 46.15329052 35.5710911 47.21713547 33.62277222 48.87025452 C24.89855411 55.55263434 15.94052849 59.40017035 4.87277222 59.43275452 C3.5669519 59.44951233 2.26113159 59.46627014 0.91574097 59.48353577 C-2.45127854 59.34561502 -5.36550671 58.60005741 -8.57913208 57.59754944 C-9.91405952 57.18481026 -9.91405952 57.18481026 -11.2759552 56.76373291 C-11.94875015 56.55138504 -12.6215451 56.33903717 -13.31472778 56.12025452 C-13.44170928 49.25196618 -13.52915524 42.38398154 -13.58938599 35.51478577 C-13.61449959 33.17905871 -13.64859706 30.84341001 -13.69192505 28.50794983 C-13.7527127 25.14675038 -13.7809699 21.78659166 -13.80300903 18.42494202 C-13.82881546 17.38409454 -13.85462189 16.34324707 -13.88121033 15.27085876 C-13.88433461 7.15880132 -13.88433461 7.15880132 -10.90921021 3.47621155 C-7.03580318 -0.04109134 -5.16069121 -0.0040381 0 0 Z " fill="#D1E9FA" transform="translate(20.314727783203125,6.8797454833984375)"/>
<path d="M0 0 C28.05 0 56.1 0 85 0 C78.25 7.875 78.25 7.875 75.01416016 11.09936523 C74.29386627 11.81958359 73.57357239 12.53980194 72.83145142 13.28184509 C72.07496307 14.03317215 71.31847473 14.78449921 70.5390625 15.55859375 C69.74849457 16.34774673 68.95792664 17.13689972 68.1434021 17.94996643 C65.63962374 20.44818661 63.13237525 22.94289044 60.625 25.4375 C58.91773752 27.13974208 57.21070391 28.84221373 55.50390625 30.54492188 C51.33858102 34.69927363 47.17040781 38.85075081 43 43 C39.69805109 41.55662966 37.50982507 39.76269557 34.96582031 37.22460938 C34.18531311 36.45040649 33.40480591 35.67620361 32.60064697 34.87854004 C31.3519986 33.62381897 31.3519986 33.62381897 30.078125 32.34375 C29.21813904 31.48567749 28.35815308 30.62760498 27.47210693 29.74353027 C25.65749174 27.93027533 23.84539684 26.11449519 22.03564453 24.29638672 C19.25384379 21.50385862 16.46151855 18.72217542 13.66796875 15.94140625 C11.90821228 14.18032867 10.14907605 12.41863106 8.390625 10.65625 C7.55009583 9.81976929 6.70956665 8.98328857 5.84356689 8.12145996 C5.07566833 7.34725708 4.30776978 6.5730542 3.51660156 5.77539062 C2.83583557 5.09303345 2.15506958 4.41067627 1.45367432 3.7076416 C0 2 0 2 0 0 Z " fill="#BCE1F9" transform="translate(17,7)"/>
</svg>
