<svg viewBox="0 0 277.9 58.2" xmlns="http://www.w3.org/2000/svg" xmlns:xlink="http://www.w3.org/1999/xlink" width="277.899902" height="58.199951" fill="none" customFrame="#000000">
	<defs>
		<filter id="pixso_custom_mask_type_outline">
			<feColorMatrix type="matrix" values="0 0 0 0 1 0 0 0 0 1 0 0 0 0 1 0 0 0 1 0 " />
		</filter>
	</defs>
	<mask id="mask_2" width="277.899994" height="58.200001" x="0.000000" y="0.000000" maskUnits="userSpaceOnUse">
		<g filter="url(#pixso_custom_mask_type_outline)">
			<path id="Clip 8" d="M0 58.2L277.9 58.2L277.9 0L0 0L0 58.2Z" fill="rgb(255,255,255)" fill-rule="evenodd" />
		</g>
	</mask>
	<g id="编组">
		<path id="Fill 1" d="M84.9999 50.6001C85.9999 50.9001 86.6999 51.3001 87.1999 51.9001C87.6999 52.5001 87.8999 53.2001 87.9999 54.0001C87.9999 54.7001 87.7999 55.3001 87.4999 55.9001C87.0999 56.5001 86.6999 57.0001 86.0999 57.4001C85.4999 57.7001 84.8999 57.9001 83.9999 58.0001C83.5999 58.1001 82.5999 58.1001 81.0999 58.1001L74.8999 58.1001L74.8999 44.1001L81.0999 44.1001C82.2999 44.1001 83.1999 44.1001 83.7999 44.2001C84.4999 44.3001 84.9999 44.5001 85.4999 44.8001C85.7499 44.9501 85.9749 45.1251 86.1749 45.3251C86.3749 45.5251 86.5499 45.7501 86.6999 46.0001C86.9999 46.5001 87.1999 47.0001 87.1999 47.6001C87.1999 48.2001 86.9999 48.8001 86.5999 49.4001C86.1999 49.9001 85.6999 50.3001 84.9999 50.6001ZM77.9999 46.4001L82.4999 46.4001C82.9999 46.4001 83.3999 46.6001 83.6999 46.9001C83.9999 47.1001 84.0999 47.5001 84.0999 48.0001C84.0999 48.5001 83.8999 48.8001 83.5999 49.1001C83.2999 49.4001 82.8999 49.5001 82.2999 49.6001L77.9999 49.6001L77.9999 46.4001ZM83.0999 55.6001C83.4999 55.5001 83.8999 55.3001 84.1999 55.0001C84.4999 54.8001 84.6999 54.4001 84.6999 53.9001C84.6999 53.4001 84.5999 53.1001 84.3999 52.8001C84.0999 52.6001 83.7999 52.3001 83.3999 52.2001C82.9999 52.0001 82.1999 52.0001 81.0999 52.0001L78.0999 52.0001L78.0999 55.7001L81.0999 55.7001C82.1999 55.6001 82.7999 55.6001 83.0999 55.6001Z" fill="rgb(34,24,21)" fill-rule="evenodd" />
		<path id="Fill 3" d="M227.9 58.0999L227.9 44.0999L230.9 44.0999L237.1 53.3999L237.1 44.0999L239.9 44.0999L239.9 58.0999L236.9 58.0999L230.8 48.8999L230.8 58.0999L227.9 58.0999Z" fill="rgb(34,24,21)" fill-rule="evenodd" />
		<path id="Fill 5" d="M251.8 44.0999L255 44.0999L255 52.7999C255 53.8999 254.9 54.7999 254.7 55.3999C254.4 56.1999 253.8 56.7999 253 57.2999C252.2 57.7999 251.2 57.9999 249.8 57.9999C248.3 57.9999 247.1 57.5999 246.3 56.8999C245.4 56.0999 245 54.9999 245 53.4999L248 53.1999C248 53.9999 248.2 54.5999 248.4 54.8999C248.7 55.3999 249.2 55.6999 249.9 55.6999C250.6 55.6999 251.1 55.4999 251.4 55.1999C251.7 54.7999 251.8 54.0999 251.8 52.9999L251.8 44.0999Z" fill="rgb(34,24,21)" fill-rule="evenodd" />
		<g showMaskRef="url(#show_mask_2)" mask="url(#mask_2)">
			<path id="show_mask_2" d="M0 58.2L277.9 58.2L277.9 0L0 0L0 58.2Z" fill="rgb(196,196,196)" fill-opacity="0.00392156886" fill-rule="evenodd" />
			<path id="Fill 7" d="M258.7 58.1001L262.1 58.1001L262.1 44.1001L258.7 44.1001L258.7 58.1001Z" fill="rgb(34,24,21)" fill-rule="evenodd" />
			<path id="Fill 9" d="M265.9 58.0999L265.9 44.0999L268.9 44.0999L275.1 53.3999L275.1 44.0999L277.9 44.0999L277.9 58.0999L274.9 58.0999L268.8 48.8999L268.8 58.0999L265.9 58.0999Z" fill="rgb(34,24,21)" fill-rule="evenodd" />
			<path id="Fill 10" d="M218.6 44.0999L215.2 44.0999L209 58.0999L212.4 58.0999L213.7 54.8999L220.1 54.8999L221.5 58.0999L225 58.0999L218.6 44.0999ZM216.8 47.2999L214.6 52.4999L219 52.4999L216.8 47.2999Z" fill="rgb(34,24,21)" fill-rule="evenodd" />
			<path id="Fill 11" d="M190.4 58.0999L190.4 46.3999L185.9 46.3999L185.9 44.0999L197.9 44.0999L197.9 46.3999L193.5 46.3999L193.5 58.0999L190.4 58.0999Z" fill="rgb(34,24,21)" fill-rule="evenodd" />
			<path id="Fill 12" d="M201.8 58.1001L205.1 58.1001L205.1 44.1001L201.8 44.1001L201.8 58.1001Z" fill="rgb(34,24,21)" fill-rule="evenodd" />
			<path id="Fill 13" d="M166.9 58.0999L166.9 44.0999L177.9 44.0999L177.9 46.3999L170.2 46.3999L170.2 49.6999L176.9 49.6999L176.9 52.0999L170.2 52.0999L170.2 58.0999L166.9 58.0999Z" fill="rgb(34,24,21)" fill-rule="evenodd" />
			<path id="Fill 14" d="M161.7 46.0001C160.3 44.8001 158.3 44.1001 155.9 44.1001C154.5 44.1001 153.4 44.3001 152.3 44.7001C151.5 45.0001 150.9 45.4001 150.2 45.9001C149.6 46.5001 149.1 47.1001 148.7 47.8001C148.2 48.7001 148 49.9001 148 51.3001C148 53.5001 148.7 55.1001 150.2 56.4001C151.6 57.6001 153.5 58.2001 156 58.2001C158.4 58.2001 160.3 57.6001 161.8 56.4001C163.3 55.2001 164 53.4001 164 51.2001C164 49.0001 163.2 47.2001 161.7 46.0001ZM155.9 55.8001C157.3 55.8001 158.3 55.4001 159.2 54.6001C160 53.8001 160.4 52.6001 160.5 51.0001C160.5 49.4001 160.1 48.3001 159.3 47.5001C158.5 46.8001 157.4 46.4001 156 46.4001C154.6 46.4001 153.6 46.8001 152.7 47.6001C151.9 48.4001 151.4 49.5001 151.4 51.1001C151.4 52.6001 151.9 53.8001 152.7 54.6001C153.5 55.4001 154.6 55.8001 155.9 55.8001Z" fill="rgb(34,24,21)" fill-rule="evenodd" />
			<path id="Fill 15" d="M111.9 58.0999L111.9 44.0999L114.9 44.0999L121.1 53.3999L121.1 44.0999L123.9 44.0999L123.9 58.0999L120.9 58.0999L114.7 48.8999L114.7 58.0999L111.9 58.0999Z" fill="rgb(34,24,21)" fill-rule="evenodd" />
			<path id="Fill 16" d="M126.9 58.0999L126.9 44.0999L130.1 44.0999L130.1 50.2999L136.4 44.0999L140.6 44.0999L134.7 49.4999L140.9 58.0999L136.9 58.0999L132.6 51.4999L130.1 53.7999L130.1 58.0999L126.9 58.0999Z" fill="rgb(34,24,21)" fill-rule="evenodd" />
			<path id="Fill 17" d="M101.5 44.0999L98.0999 44.0999L91.8999 58.0999L95.2999 58.0999L96.5999 54.8999L103 54.8999L104.4 58.0999L107.9 58.0999L101.5 44.0999ZM99.7999 47.2999L97.6999 52.4999L102 52.4999L99.7999 47.2999Z" fill="rgb(34,24,21)" fill-rule="evenodd" />
			<path id="Fill 18" d="M249.9 13.0999L249.9 15.7999C249.9 16.0999 250 17.4999 251.7 17.4999L265.1 17.4999L265.1 29.1999C265.1 29.8999 264.8 30.2999 264.1 30.2999L256.3 30.2999C256.3 30.2999 257 32.4999 257.1 32.9999C257.2 33.2999 257.4 34.0999 258.9 34.0999L267.6 34.0999C270.9 34.0999 271.4 31.7999 271.4 30.9999L271.4 17.4999L276.1 17.4999C277.8 17.4999 277.9 16.4999 277.9 16.0999L277.9 13.0999L249.9 13.0999Z" fill="rgb(34,24,21)" fill-rule="evenodd" />
			<path id="Fill 19" d="M255.7 7.9002L275.2 7.9002C276.9 7.9002 277 6.8002 277 6.4002L277 3.2002L254 3.2002L254 6.4002C253.9 6.8002 254 7.9002 255.7 7.9002Z" fill="rgb(34,24,21)" fill-rule="evenodd" />
			<path id="Fill 20" d="M232 9.50024C232 9.50024 234.3 12.3002 234.8 12.7002C235.3 13.1002 236.4 13.1002 237 12.8002C242.5 10.3002 247.7 5.30024 248.9 3.50024L243.4 0.000244141C238.8 6.60024 231.2 9.80024 232 9.50024Z" fill="rgb(34,24,21)" fill-rule="evenodd" />
			<path id="Fill 21" d="M231.9 20.3001C231.9 20.3001 234.2 23.0001 234.7 23.4001C235.2 23.8001 236.3 23.8001 236.9 23.5001C237.7 23.1001 238.5 22.7001 239.2 22.3001L239.2 34.0001L245.3 34.0001L245.3 17.7001C247 16.2001 248.3 14.8001 248.8 14.0001L242.9 11.1001C238.2 18.3001 231.9 20.3001 231.9 20.3001Z" fill="rgb(34,24,21)" fill-rule="evenodd" />
			<path id="Fill 22" d="M131.6 20.0999C131.6 20.0999 129.5 26.0999 124.9 32.4999C124.9 32.4999 128.6 33.7999 129.6 33.9999C130.7 34.2999 131.6 33.7999 132.1 32.9999C134.7 28.7999 135.9 20.9999 135.9 20.9999L131.6 20.0999Z" fill="rgb(34,24,21)" fill-rule="evenodd" />
			<path id="Fill 23" d="M136.6 16.5999C136.9 16.2999 137.1 15.5999 136.4 14.9999C133.5 12.4999 129.4 10.0999 129.4 10.0999L125.9 14.2999C125.9 14.2999 132 16.7999 134.1 19.0999C134.2 19.0999 136.4 16.7999 136.6 16.5999Z" fill="rgb(34,24,21)" fill-rule="evenodd" />
			<path id="Fill 24" d="M136.7 7.4001C137 7.1001 137.1 6.4001 136.4 5.8001C133.3 3.2001 129.4 1.1001 129.4 1.1001L125.9 5.4001C125.9 5.4001 130.8 7.3001 134 10.1001L136.7 7.4001Z" fill="rgb(34,24,21)" fill-rule="evenodd" />
			<path id="Fill 25" d="M167.5 13.0999L167.5 19.0999L155.1 19.0999L155.1 21.2999L167.8 21.2999L167.8 23.5999C167.8 23.9999 167.7 24.9999 166 24.9999L155 24.9999L155 27.1999L169.8 27.1999L169.8 29.4999C169.8 29.8999 169.7 30.8999 168 30.8999L155 30.8999L155 34.9999L148.9 34.9999L148.9 30.8999L137.6 30.8999C135.9 30.8999 135.8 29.8999 135.8 29.4999L135.8 27.1999L148.9 27.1999L148.9 24.9999L139.7 24.9999C138 24.9999 137.9 23.9999 137.9 23.5999L137.9 21.2999L148.9 21.2999L148.9 19.0999L141.5 19.0999C139.8 19.0999 139.7 18.0999 139.7 17.6999L139.7 15.3999L148.9 15.3999L148.9 13.0999L139.2 13.0999C137.5 13.0999 137.4 12.0999 137.4 11.6999L137.4 9.39985L148.8 9.39985L148.8 7.09985L141.4 7.09985C139.7 7.09985 139.6 6.09985 139.6 5.69985L139.6 3.39985L148.8 3.39985L148.8 1.39985C148.8 0.699853 149.4 0.0998535 150.4 0.0998535L154.9 0.0998535L154.9 3.39985L163.5 3.39985C165.6 3.39985 167.5 4.39985 167.5 6.29985L167.5 9.39985L169.9 9.39985L169.9 11.6999C169.9 12.0999 169.8 13.0999 168.1 13.0999L167.5 13.0999ZM155 9.29985L161.4 9.29985L161.4 6.99985L155 6.99985L155 9.29985ZM161.4 15.2999L155 15.2999L155 12.9999L161.4 12.9999L161.4 15.2999Z" fill="rgb(34,24,21)" fill-rule="evenodd" />
			<path id="Fill 26" d="M101.6 17.6999L115.6 17.6999C117.7 17.6999 117.8 16.3999 117.8 15.9999L117.8 13.0999L100.2 13.0999L100.2 6.69985L113.2 6.69985C115.3 6.69985 115.4 5.39985 115.4 4.99985L115.4 2.09985L78.7001 2.09985L78.7001 4.99985C78.7001 5.49985 78.8001 6.69985 80.9001 6.69985L93.8001 6.69985L93.8001 13.0999L76.3001 13.0999L76.3001 15.2999L76.3001 15.5999L76.3001 15.8999C76.3001 16.3999 76.4001 17.5999 78.5001 17.5999L92.5001 17.5999C90.6001 20.8999 86.1001 25.9999 76.1001 29.4999C76.1001 29.4999 78.1001 32.0999 79.1001 33.0999C80.2001 34.3999 81.8001 33.9999 82.8001 33.4999C86.5001 31.6999 93.1001 27.2999 97.1001 20.3999C101.1 27.2999 107.7 31.6999 111.4 33.4999C112.5 33.9999 114 34.3999 115.1 33.0999C116.1 31.8999 118.1 29.4999 118.1 29.4999C107.9 25.9999 103.5 20.8999 101.6 17.6999Z" fill="rgb(34,24,21)" fill-rule="evenodd" />
			<path id="Fill 27" d="M182.2 11.5999C183.3 10.8999 184.4 9.99985 185.4 8.89985L194.5 8.89985C195.9 8.89985 196 8.09985 196 7.79985L196 5.29985L188.4 5.29985C189.3 3.99985 190 2.69985 190.4 1.59985L184.4 0.0998535C182.1 6.09985 176.8 9.89985 176.8 9.89985C176.8 9.89985 178.7 11.2999 179.7 11.7999C180.7 12.2999 181.6 11.9999 182.2 11.5999Z" fill="rgb(34,24,21)" fill-rule="evenodd" />
			<path id="Fill 28" d="M222.7 26.1997C221.9 26.7997 220.6 27.4997 219.1 28.0997C221.1 29.1997 223.2 29.7997 226.1 30.7997C226.1 30.7997 224.5 32.9997 223.4 34.3997C222.8 35.1997 221.4 35.2997 220.3 34.7997C216.8 33.2997 209.3 28.1997 205.1 19.7997L204.2 19.7997L204.2 29.0997C205.4 28.6997 206.4 28.1997 207.6 27.4997C207.6 27.4997 208.9 29.6997 209.1 30.0997C209.4 30.4997 209.3 31.0997 208.8 31.3997C207.4 32.2997 204.5 33.9997 201 35.0997C199.7 35.4997 198 34.9997 198 32.9997L198 2.19971L218.7 2.19971C221.7 2.19971 222.6 3.89971 222.6 5.29971L222.6 19.7997L210.5 19.7997C211.5 21.3997 212.9 23.1997 214.6 24.7997C218.3 23.5997 221.4 20.7997 221.4 20.7997C221.4 20.7997 222.7 23.0997 223.1 23.7997C223.6 24.6997 223.5 25.6997 222.7 26.1997ZM204.1 9.19971L216.4 9.19971L216.4 6.09971L204.1 6.09971L204.1 9.19971ZM216.4 15.6997L204.1 15.6997L204.1 12.8997L216.4 12.8997L216.4 15.6997Z" fill="rgb(34,24,21)" fill-rule="evenodd" />
			<path id="Fill 29" d="M195.2 27.3C194 28 193 28.6 191.8 28.9L191.8 23.1L194.9 23.1C196.3 23.1 196.4 22.3 196.4 22L196.4 19.5L191.8 19.5L191.8 15.8L194.4 15.8C195.8 15.8 195.9 15 195.9 14.7L195.9 12.2L182.4 12.2L182.4 14.7C182.4 15 182.4 15.8 183.9 15.8L185.8 15.8L185.8 19.5L181 19.5L181 22C181 22.3 181.1 23.1 182.5 23.1L185.8 23.1L185.8 30L185.8 32L185.8 32.7999C185.8 34.7999 187.5 35.2999 188.8 34.9C192.3 33.7999 195.3 32 196.6 31.2C197 30.9 197.1 30.4 196.9 30C196.6 29.5 195.2 27.3 195.2 27.3Z" fill="rgb(34,24,21)" fill-rule="evenodd" />
			<path id="Fill 30" d="M50.7 0.100098C25 0.100098 25.9 31.4001 14.6 40.9001C14.4 41.1001 14.1 41.2001 13.8 41.2001C13.3 41.2001 12.8 40.9001 12.6 40.4001L12.6 40.3001C12.5 40.1001 12.5 40.0001 12.5 39.8001L12.5 14.8001C12.5 13.5001 13.5 12.5001 14.8 12.5001L25.4 12.5001C26.2 12.5001 26.8 12.1001 27.2 11.4001C29 8.3001 31.1 5.6001 33.7 3.4001C35.1 2.2001 34.3 0.100098 32.7 0.100098L7.4 0.100098C3.3 0.100098 0 3.4001 0 7.5001L0 50.7001C0 54.8001 3.2 58.1001 7.3 58.1001C33.1 58.1001 32.1 26.6001 43.5 17.2001C43.7 17.0001 44 16.9001 44.3 16.9001C45 16.9001 45.6 17.5001 45.6 18.2001L45.6 43.2001C45.6 44.5001 44.6 45.5001 43.3 45.5001L43.2 45.5001L32.6 45.5001C31.8 45.5001 31.1 45.9001 30.7 46.6001C28.9 49.6001 26.8 52.4001 24.2 54.6001C22.8 55.8001 23.6 57.9001 25.2 57.9001L50.6 57.9001C54.7 57.9001 58 54.6001 58 50.5001L58 7.5001C57.9 4.0001 55.5 1.1001 52.3 0.300098C51.8 0.200098 51.2 0.100098 50.7 0.100098Z" fill="rgb(0,60,138)" fill-rule="evenodd" />
		</g>
	</g>
</svg>
