<svg width="60.0000039px" height="61.0000025px" viewBox="0 0 60.0000039 61.0000025" version="1.1" xmlns="http://www.w3.org/2000/svg" xmlns:xlink="http://www.w3.org/1999/xlink">
<g id="页面-1" stroke="none" stroke-width="1" fill="none" fill-rule="evenodd">
<g id="总行金库" transform="translate(-133, -652)" fill-rule="nonzero">
<g id="编组-7" transform="translate(20, 600)">
<g id="编组-5" transform="translate(113, 52)">
<path d="M47.0243475,2.48112747e-06 C47.8140453,2.48112747e-06 48.5698241,0.31825314 49.1179673,0.881899956 L58.7239875,10.786259 C58.9405879,11.0079702 59.1206769,11.2620748 59.2576553,11.5392616 C59.7362813,12.0673579 60.0007317,12.7524748 60.0000024,13.4624711 L60.0000024,58.1168843 C60.0000024,59.711079 58.69662,61.0000025 57.0921956,61.0000025 L2.90781013,61.0000025 C1.30338581,61.0000025 2.4227611e-06,59.711079 2.4227611e-06,58.1168843 L2.4227611e-06,13.4624711 C-0.000918870108,12.7557075 0.260941137,12.073406 0.735508544,11.5460454 C0.872911655,11.2662291 1.05419176,11.0097833 1.27259728,10.786259 L10.8786175,0.881899956 C11.4275847,0.317404515 12.1847731,-0.00102547361 12.9756583,2.48112747e-06 Z M54.9966324,16.0000025 L6.00000242,16.0000025 L6.00000242,56.0000025 L54.9966324,56.0000025 L54.9966324,16.0000025 Z M45.6499145,5.00000248 L13.3500903,5.00000248 L8.00000242,11.0000025 L51.0000024,11.0000025 L45.6499145,5.00000248 Z" id="形状结合" fill="#616161"></path>
<path d="M18,30.6293101 C18,29.1771822 19.1350479,28 20.5352004,28 L38.6027287,28 C40.0028813,28 41.1379292,29.1771822 41.1379292,30.6293101 C41.1379292,32.081438 40.0028813,33.2586203 38.6027287,33.2586203 L20.5352004,33.2586203 C19.1350479,33.2586203 18,32.081438 18,30.6293101 Z" id="路径" fill="#2196F3"></path>
</g>
</g>
</g>
</g>
</svg>