<svg width="120px" height="120px" viewBox="0 0 120 120" version="1.1" xmlns="http://www.w3.org/2000/svg" xmlns:xlink="http://www.w3.org/1999/xlink">
<g id="页面-1" stroke="none" stroke-width="1" fill="none" fill-rule="evenodd">
<g id="款箱子复核-账号验证" transform="translate(-60, -434)">
<circle id="椭圆形" fill="#E9F6FF" cx="120" cy="494" r="60"></circle>
<g id="编组-80" stroke-linecap="round" stroke-linejoin="round" transform="translate(89, 464)" stroke-width="4">
<path d="M49.7160293,16 L60.6883645,16 C61.4198535,16 62,16.5735661 62,17.2967581 L62,54.7032419 C62,55.4264339 61.4198535,56 60.6883645,56 L1.31163548,56 C0.580146461,56 0,55.4264339 0,54.7032419 L0,17.2967581 C0,16.5735661 0.580146461,16 1.31163548,16 L10.3417413,16" id="路径" stroke="#616161"></path>
<path d="M0,35 L14.8097282,35 C15.4506438,35 16,35.5833333 16,36.3188406 L16,56" id="路径" stroke="#616161"></path>
<path d="M60,37 L48.0191205,37 C47.4474187,37 47,37.4444444 47,37.9590643 L47,45" id="路径" stroke="#616161"></path>
<line x1="46" y1="45.5" x2="16" y2="45.5" id="路径" stroke="#616161"></line>
<line x1="38" y1="46" x2="38" y2="56" id="路径" stroke="#616161"></line>
<path d="M42.9872351,13.3382467 C43.3239261,5.96508922 36.9526951,0 29.4936929,0 C22.0346907,0 16.0778487,4.50581846 16,13.3382467 C15.9483521,20.5321955 29.2605991,33 29.2605991,33 C29.2605991,33 42.6246447,20.9418154 42.9872351,13.3382467 Z" id="路径" stroke="#2196F3"></path>
<circle id="椭圆形" stroke="#2196F3" cx="29" cy="12" r="4"></circle>
</g>
</g>
</g>
</svg>