
<svg width="49px" height="47px" viewBox="0 0 49 47" version="1.1" xmlns="http://www.w3.org/2000/svg" xmlns:xlink="http://www.w3.org/1999/xlink">
    <g id="页面-1" stroke="none" stroke-width="1" fill="none" fill-rule="evenodd" stroke-linecap="round" stroke-linejoin="round">
        <g id="网点交接款箱扫描" transform="translate(-98, -534)" stroke-width="4">
            <g id="编组-7" transform="translate(20, 447)">
                <g id="编组-6" transform="translate(78, 87)">
                    <g id="编组" transform="translate(27, 0)" stroke="#2196F3">
                        <circle id="椭圆形" cx="9" cy="9" r="7"></circle>
                        <g transform="translate(7.92, 0)" id="路径">
                            <line x1="0.72" y1="0.245026178" x2="0.72" y2="1.63979058"></line>
                            <line x1="0.72" y1="16.3602094" x2="0.72" y2="17.7549738"></line>
                        </g>
                        <g transform="translate(0, 7.92)" id="路径">
                            <line x1="0.235725511" y1="0.72" x2="1.65007858" y2="0.72"></line>
                            <line x1="16.3593504" y1="0.72" x2="17.7548455" y2="0.72"></line>
                        </g>
                        <circle id="椭圆形" cx="9" cy="9" r="1"></circle>
                    </g>
                    <g id="编组-5" transform="translate(0, 2)" stroke="#616161">
                        <path d="M22.1818923,3.46925134 C18.2051387,4.51203209 14.7479608,5.49465241 14.5880914,5.67513369 C14.2883361,5.27406417 1.658646,0 1.658646,0 C0.739396411,0 0,0.74197861 0,1.6644385 L0,38.8435829 C0,39.7660428 0.739396411,40.5080214 1.658646,40.5080214 C1.658646,40.5080214 14.7079935,44.2780749 14.5880914,44.3181818 C14.7279772,44.2981283 33.9922512,43.0548128 34.4119086,42.6537433 C34.7116639,43.0548128 47.341354,45 47.341354,45 C48.2606036,45 49,44.2580214 49,43.3355615 L49,11.0895722" id="路径"></path>
                        <line x1="14.1284666" y1="5.8355615" x2="14.1284666" y2="31.644385" id="路径"></line>
                        <line x1="35.1313214" y1="28.8168449" x2="35.1313214" y2="42.8743316" id="路径"></line>
                    </g>
                </g>
            </g>
        </g>
    </g>
</svg>