
<svg width="120px" height="120px" viewBox="0 0 120 120" version="1.1" xmlns="http://www.w3.org/2000/svg" xmlns:xlink="http://www.w3.org/1999/xlink">
    <g id="页面-1" stroke="none" stroke-width="1" fill="none" fill-rule="evenodd">
        <g id="网点交接款箱扫描" transform="translate(-87, -275)">
            <g id="编组-2" transform="translate(87, 275)">
                <circle id="椭圆形" fill="#E9F6FF" cx="60" cy="60" r="60"></circle>
                <path d="M58,35 C66.2917889,35 73,41.5256484 73,49.5440922 C73,58.2662824 58,72 58,72 C58,72 43,59.4178674 43,49.5440922 C43,41.5043228 49.7302053,35 58,35 Z M58,42.4 C54.3181017,42.4 51.3333333,45.3449714 51.3333333,48.9777778 C51.3333333,52.6105841 54.3181017,55.5555556 58,55.5555556 C61.6818983,55.5555556 64.6666667,52.6105841 64.6666667,48.9777778 C64.6666667,45.3449714 61.6818983,42.4 58,42.4 Z" id="形状结合" fill="#21A1FF"></path>
                <g id="编组" transform="translate(37, 69)" stroke="#21A1FF" stroke-linecap="round" stroke-linejoin="round" stroke-width="4">
                    <path d="M40,8 L4.13865546,8 C1.8697479,8 0,6.1928934 0,4 L0,4 C0,1.8071066 1.8697479,0 4.13865546,0 L8.59243697,0" id="路径"></path>
                    <path d="M8.8,16 L39.7947847,16 C42.1001819,16 44,14.1928934 44,12 L44,12 C44,9.8071066 42.1001819,8 39.7947847,8" id="路径"></path>
                </g>
            </g>
        </g>
    </g>
</svg>