<svg width="52.9622228px" height="52.0002536px" viewBox="0 0 52.9622228 52.0002536" version="1.1" xmlns="http://www.w3.org/2000/svg" xmlns:xlink="http://www.w3.org/1999/xlink">
<g id="页面-1" stroke="none" stroke-width="1" fill="none" fill-rule="evenodd">
<g id="总行金库" transform="translate(-153.0002, -427.9997)" fill="#DE8B12" fill-rule="nonzero" stroke="#DE8B12" stroke-width="2">
<g id="编组-2" transform="translate(154, 426)">
<path d="M1.18781968,53 C0.857258518,53 0.537191356,52.8635779 0.311570242,52.6117218 C0.0334791017,52.3073957 -0.0662139487,51.8823884 0.043973107,51.4836162 L3.52273586,39.0062439 C3.58045289,38.8068578 3.68539295,38.6284597 3.82706202,38.4815437 L38.6251836,3.6886691 C39.5434091,2.77044363 41.0335578,2.77044363 41.9465363,3.6886691 L50.2735295,12.0156623 C51.1917549,12.9338878 51.1917549,14.4240365 50.2735295,15.337015 L45.7086372,19.9019073 C45.4830161,20.1275284 45.1839369,20.2534565 44.8638697,20.2534565 C44.5490496,20.2534565 44.2447234,20.1275284 44.0191023,19.9019073 L37.2084929,13.0860508 C36.7415096,12.6190676 36.7415096,11.8634992 37.2084929,11.401763 C37.6754761,10.9347798 38.4310445,10.9347798 38.8927807,11.401763 L44.8638697,17.372852 L48.5630066,13.6737151 L40.2832364,5.39919196 L5.73172398,39.9559514 L2.85111952,50.2872996 L14.0482232,48.1937456 L34.7738836,27.4680851 C35.1149388,27.1007949 38.8508047,23.1917779 43.436685,22.8559698 C44.0925604,22.8087468 44.6644836,23.301965 44.7117067,23.9578403 C44.7589297,24.6137157 44.2657114,25.185639 43.6098361,25.232862 C39.8372412,25.5109531 36.5421235,29.0631739 36.5106415,29.0999029 C36.5001475,29.1103969 36.4844065,29.1261379 36.4739125,29.1366319 L15.4701609,50.1351366 C15.3022568,50.3030406 15.0818827,50.4184747 14.8457676,50.4656977 L1.4081938,52.979012 C1.33473576,52.994753 1.26127772,53 1.18781968,53 Z" id="路径"></path>
</g>
</g>
</g>
</svg>