<?xml version="1.0" standalone="no"?><!DOCTYPE svg PUBLIC "-//W3C//DTD SVG 1.1//EN" "http://www.w3.org/Graphics/SVG/1.1/DTD/svg11.dtd"><svg t="1755076374747" class="icon" viewBox="0 0 1024 1024" version="1.1" xmlns="http://www.w3.org/2000/svg" p-id="10928" xmlns:xlink="http://www.w3.org/1999/xlink" width="32" height="32"><path d="M992.256 318.464c0 2.048-0.512 4.096-0.512 6.144 7.68-8.192 10.24-14.848 8.192-19.968l-9.728 3.584c0 2.048-2.56 5.12-6.144 9.216l8.192 1.024zM997.888 327.168c0 2.048-2.56 5.12-6.656 8.704 0 2.56-0.512 5.12-0.512 7.168-1.536 1.536-4.096 3.072-6.656 5.12l-5.12 3.584-0.512 8.192c23.04-17.408 32.256-27.648 28.672-36.352l-9.216 3.584z" fill="#1296db" p-id="10929"></path><path d="M999.936 346.624l-9.728 3.584c0 3.072-5.632 9.216-12.288 15.872l-1.024 14.848c18.944-16.384 26.624-26.112 23.04-34.304zM1004.032 270.336l-16.896-11.776c-1.024 1.536-2.56 3.072-4.096 4.608 0 2.048-0.512 14.336-1.024 26.624 9.216-6.656 17.92-13.824 22.016-19.456z" fill="#1296db" p-id="10930"></path><path d="M1014.272 302.592c-1.536-2.048-3.584-4.096-7.168-6.144 0.512-14.848 1.024-29.184 1.024-31.232 0.512-2.56 1.536-10.24-4.608-17.92s-16.896-12.288-33.792-14.336c-24.576-3.072-56.832-7.68-68.096-9.728-6.144-4.608-16.384-7.68-31.232-9.216-24.064-2.56-458.24-66.048-462.848-67.072-25.088-3.584-66.56-10.24-69.632-10.752-7.68-2.048-15.872 0-26.624 6.144-7.68 4.096-19.456 10.752-25.088 13.824-4.608 0-11.776 1.024-20.48 6.144-3.584 2.048-6.656 3.584-9.216 5.12-5.632 3.072-8.704 4.608-10.752 7.168v1.024c-2.048 1.536-5.12 3.584-7.68 8.704-41.472 24.064-100.864 58.88-105.472 61.44-3.584 1.536-4.096 1.536-9.216 2.56-5.632 1.024-15.872 5.12-30.208 13.312-1.536 1.024-3.072 1.536-4.608 2.56-2.56 1.536-5.12 2.56-7.168 4.096-4.608 3.072-6.656 6.656-7.68 9.216 0 0.512-0.512 1.024-0.512 1.024v0.512c-0.512 0.512-2.56 2.048-8.192 5.12-0.512 0-33.28 18.432-40.448 24.576-7.68 6.656-10.752 14.336-10.752 26.624v29.696c-6.144 4.096-10.752 10.24-10.752 18.944v6.656c0 10.24 0 17.92 0.512 20.992 0.512 8.192 6.656 17.408 13.824 20.992 5.12 83.968 16.384 259.584 16.896 263.68 3.072 20.992 17.408 27.136 25.6 28.672 4.096 1.024 10.24 2.048 16.896 3.584 20.48 4.608 35.328 7.68 39.936 8.192 1.024 0 1.536 0.512 2.56 0.512 6.656 1.536 13.824 2.048 25.088-2.048l83.968 18.432c4.096 2.56 12.8 7.168 25.088 9.728 14.848 3.584 53.76 12.8 57.344 13.824 5.12 1.536 13.312 2.048 20.992 2.048l102.4 23.04c2.56 3.072 6.144 5.632 11.264 7.168 4.096 1.024 25.088 6.144 54.784 13.312 12.288 3.072 25.088 6.144 26.112 6.144 2.56 1.024 13.312 2.56 20.48 0 1.024 0 3.072 0 7.68 1.024 5.632 1.024 87.04 20.992 92.672 22.528 0.512 0 1.536 0.512 1.536 0.512 3.072 12.288 16.896 15.36 22.016 16.384h0.512c2.048 0.512 19.456 4.608 34.816 8.704 16.384 4.096 31.232 7.68 34.304 8.704 2.56 0.512 5.12 1.024 7.68 1.024 9.728 0 18.432-4.608 26.624-13.312 7.68-8.192 22.528-26.624 29.184-34.816l2.56-3.072c2.56-3.072 4.096-6.144 5.12-9.728 1.024-2.048 2.048-5.12 3.072-5.632 1.024-1.024 2.048-2.56 4.096-4.096 13.312-13.824 16.384-17.92 17.408-22.016 1.024-3.584 1.536-8.192 2.048-12.288l76.8-88.576c5.12-0.512 11.776-2.048 16.896-7.168 3.584-3.584 12.288-13.824 15.36-17.92 3.584-2.56 12.288-8.704 17.408-14.848 4.608-6.144 19.968-23.552 19.968-23.552l2.56-3.072 16.896-263.168c8.704-6.656 10.24-10.24 11.264-13.312 0.512-1.536 1.024-3.584 3.072-35.328 0-1.536 0-7.68-4.096-13.312z m-35.84 57.344l-0.512 6.144c7.168-6.656 12.8-12.8 12.288-15.872l9.728-3.584c3.584 8.192-4.608 18.432-23.04 34.304l-15.36 237.056c-4.608 5.632-13.824 16.384-17.92 20.992-2.56 3.072-8.704 7.68-12.8 10.24l-1.536 1.024-1.536 1.536c-4.096 5.12-11.264 13.824-14.848 17.408-1.024 0-2.56 0.512-3.584 0.512l-6.656-0.512-90.624 104.96v4.608c0 2.56-0.512 6.144-0.512 7.68-2.56 3.072-9.216 10.24-12.288 13.312-1.536 2.048-3.072 3.584-4.096 4.608-3.584 4.096-5.632 9.216-7.68 12.8-0.512 1.024-1.536 3.072-1.536 3.584l-2.56 3.072c-5.632 7.168-20.992 25.6-27.648 33.28l-1.024 1.024c0 9.728-0.512 15.872-0.512 16.384h-4.096s0-5.12 0.512-12.8c-2.048 1.024-3.584 0.512-4.608 0.512-3.072-0.512-18.944-4.608-33.792-8.192-20.48-5.12-33.28-8.192-35.328-8.704h-0.512c-1.024 0-2.048-0.512-3.072-0.512-3.584-11.264-14.848-14.336-18.432-15.872-4.608-1.536-87.04-21.504-94.72-23.04-2.048-0.512-4.096-0.512-5.632-1.024 1.536 5.632 3.072 10.752 3.072 10.752l1.024 3.072-3.584-0.512c-1.024 0-8.704-1.536-11.264-2.56-2.048-1.024-3.584-5.12-4.096-10.24h-5.632c-1.536-0.512-6.656-1.536-27.648-6.656-16.896-4.096-41.984-10.24-50.688-12.288v-4.608l-116.736-26.112c1.024 6.144 4.608 10.24 5.12 10.24l2.56 2.56-3.584 1.024s-2.048 0.512-4.608 0.512c-3.072 0-9.728-4.096-12.288-5.632l-1.024-0.512v-1.024-7.68c-3.072 0-5.12-0.512-6.144-1.024-4.608-1.536-47.104-11.264-58.88-14.336-11.264-2.56-18.432-7.168-18.432-7.168l-2.048-1.536-96.768-20.992-3.584 1.536c-1.536 0.512-3.072 1.024-4.096 1.536v0.512c0.512 7.168 4.096 10.752 4.096 10.752l2.56 2.56H138.24s-6.144 1.024-8.704 1.536c-3.072 0-7.68-4.096-8.704-5.12l-0.512-0.512v-1.024-9.728c-6.144-1.024-23.552-5.12-36.864-7.68-6.656-1.536-13.312-3.072-17.408-3.584-3.072-0.512-5.12-2.048-5.632-7.168-0.512-6.656-11.776-182.272-16.896-261.12-5.12-1.024-8.704-1.536-10.24-2.048-10.24-1.536-12.8-9.728-13.312-13.312l10.24-0.512c0 1.024 1.024 3.584 4.608 4.096 1.536 0 4.608 0.512 8.192 1.536L42.496 414.72l-8.192-2.56s-2.048-0.512-4.096-1.536c0 0-0.512-0.512-0.512-1.024v-1.536C20.48 404.48 13.824 396.288 13.312 394.752L21.504 389.12c1.024 1.536 4.096 4.608 7.168 7.168V387.072c-6.656-2.56-9.216-9.216-9.216-12.288l10.24-0.512c0 1.024 1.024 3.584 4.608 4.096 1.024 0 2.56 0.512 5.12 1.024V373.76v-38.912c0-5.632 0.512-5.632 1.536-7.168 2.048-1.536 9.216-6.144 17.92-11.264-1.536-1.024-2.56-1.536-2.56-1.536l5.632-8.704 5.632-8.704s4.608 3.072 12.8 6.656c8.704-5.12 11.776-7.68 14.848-12.288 0.512-0.512 1.024-1.536 1.024-2.048 0-0.512 0.512-0.512 0.512-1.024 1.024-0.512 2.56-1.536 4.608-2.56 1.536-0.512 3.072-1.536 4.608-2.56 10.24-5.632 18.944-9.728 20.992-10.24 6.144-1.024 10.24-1.536 16.896-4.608 5.12-2.56 86.528-50.176 111.616-65.024l5.632-3.072 0.512-4.608c0.512-0.512 1.536-1.024 2.56-2.048 1.024-0.512 3.584-2.048 6.144-3.584s6.144-3.072 9.728-5.632c4.096-2.56 7.168-2.56 7.68-2.56l3.584 1.024 4.608-2.56s18.432-9.728 28.672-15.872c5.632-3.072 7.68-3.584 7.68-3.584 2.56 0.512 26.624 4.608 72.192 11.264 17.92 2.56 439.296 64 463.36 67.072 10.24 1.024 15.36 2.56 17.408 3.584l1.536 3.584 7.168 1.024c0.512 0 42.496 6.656 72.704 10.24 10.24 1.024 14.336 3.584 15.872 4.096 2.048-1.536 3.584-3.072 4.096-4.608l16.896 11.776c-4.096 5.632-12.8 12.8-22.528 19.968 0 5.632-0.512 10.752-0.512 15.36l-0.512 11.264 4.096 0.512c3.584-4.096 6.144-7.168 6.144-9.216l9.728-3.584c2.048 5.632-0.512 11.776-8.192 19.968-0.512 4.096-0.512 8.192-1.024 11.776 4.096-3.584 6.656-7.168 6.656-8.704l9.728-3.584c3.584 9.216-5.632 19.456-28.672 36.864z" fill="#1296db" p-id="10931"></path><path d="M332.288 754.176h-3.072v6.656c4.096 2.56 8.192 4.608 9.216 4.608h0.512c-1.536-2.56-3.584-6.144-3.584-11.264H332.288zM123.392 712.704v8.192c2.048 2.048 4.608 3.584 5.632 3.584s3.072-0.512 4.608-0.512c-1.536-2.048-2.56-5.632-3.072-10.24-2.048 0-3.584 0-6.144-0.512 0-0.512-0.512-0.512-1.024-0.512zM543.744 803.84c0.512 4.096 1.024 6.656 2.048 7.168 1.024 0.512 4.096 1.024 6.656 1.536-0.512-2.56-1.536-5.632-2.56-9.216-2.048 0.512-4.096 0.512-6.144 0.512zM330.24 441.856v-10.24h-5.12v10.24h5.12zM747.52 513.024c-13.824 0-70.656-14.336-91.648-19.968l-21.504-4.096c0 2.048 0 4.096 0.512 6.144v2.048l-2.048 0.512-2.048 1.024 23.04 4.608c3.072 1.024 75.776 19.968 94.208 19.968 3.584 0 7.168 0 10.752-0.512v-10.24c-4.096 0.512-7.68 0.512-11.264 0.512zM80.384 397.312c17.408 3.072 27.136 5.12 28.672 5.12h3.072c0-3.584 0-7.168-0.512-10.24h-1.024c-1.536 0-14.848-2.56-28.16-5.12-16.384-3.072-34.304-6.656-43.52-8.192v5.12l-10.24 1.536v1.536c1.024 0.512 2.56 1.024 4.096 1.024 4.608 1.024 28.16 5.12 47.616 9.216zM334.336 441.856l94.208 17.408c3.072 3.072 9.728 7.168 25.6 9.216 12.288 1.536 35.84 7.168 55.296 11.776 14.848 3.584 26.624 6.144 30.72 6.656h2.56v-10.24h-1.536c-3.584-0.512-16.384-3.072-29.696-6.144-19.456-4.608-43.52-10.24-56.32-11.776-14.848-2.048-18.944-5.12-19.456-6.144L435.2 450.56l-100.864-18.432h-0.512c0 2.56 0.512 6.144 0.512 9.728zM202.752 414.208l-1.536 0.512-2.048 1.024c8.704 2.048 15.36 3.584 17.92 3.584 3.072 1.536 13.824 7.68 25.6 8.704 3.584 0.512 12.8 2.048 23.552 4.096 21.504 4.096 40.96 7.68 54.784 8.704v-10.24c-14.848-1.536-36.864-5.632-52.736-8.704-11.264-2.048-19.968-3.584-24.064-4.096-11.264-1.024-22.016-7.68-22.016-7.68l-0.512-0.512h-1.024s-7.68-1.536-17.408-3.584c0 2.048 0.512 4.096 0.512 6.144l-1.024 2.048zM117.248 392.192h-2.048c0 3.072 0 6.656 0.512 10.24h5.12v-10.24c-1.024-0.512-2.048-0.512-3.584 0zM124.928 391.68v10.24h3.584c0-3.584-0.512-7.168-0.512-10.24h-3.072zM954.368 344.064c-6.656 5.632-10.752 8.704-12.8 10.752-4.096 4.608-10.24 3.584-10.24 3.584l-2.56-0.512-93.696 86.528v11.776c-4.608 4.096-16.896 15.36-35.84 33.792-15.36 14.848-26.112 20.48-36.864 22.528v10.24c12.8-2.048 25.6-7.68 43.52-25.088 12.288-12.288 22.016-20.992 28.672-27.136v-6.144l10.752-9.728v-5.632l87.04-79.872c4.096 0 11.264-0.512 17.408-7.168 1.536-1.536 6.144-5.632 11.264-9.728 13.824-11.264 24.576-20.48 31.232-27.648 0-2.048 0.512-4.096 0.512-6.144h-0.512l-7.168-1.024c-9.216 9.216-24.576 21.504-30.72 26.624zM561.152 485.376v-10.24l-4.096-1.024v10.24l4.096 1.024zM267.776 442.368c-11.264-2.048-19.968-3.584-24.064-4.096-11.264-1.024-22.016-7.68-22.016-7.68L220.16 430.08h-1.024c-0.512 0-10.752-2.56-24.576-5.12v10.752c10.24 2.048 18.944 4.096 21.504 4.608 3.072 1.536 13.824 7.68 25.6 8.704 3.584 0.512 12.8 2.048 23.552 4.096 22.016 4.096 41.984 7.68 55.296 8.704v-10.24c-14.336-2.048-36.864-6.144-52.736-9.216zM125.44 411.648v10.24h4.096c0-3.584-0.512-6.656-0.512-10.24h-3.584zM626.688 518.144l26.624 5.12c3.072 1.024 75.776 19.968 94.208 19.968 4.096 0 7.68 0 11.264-0.512v-10.24c-3.584 0.512-7.168 0.512-11.264 0.512-13.824 0-70.656-14.336-91.648-19.968l-29.184-5.632v10.752zM556.544 494.08v10.24l5.12 1.024v-10.24l-5.12-1.024zM330.24 451.584h-5.12v10.24h5.12v-0.512-9.728zM541.184 496.128c-3.584-0.512-16.384-3.072-29.696-6.144-19.456-4.608-43.52-10.24-56.32-11.776-14.848-2.048-18.944-5.12-19.456-6.144l-0.512-2.048-100.864-18.432v10.752l94.208 17.408c3.072 3.072 9.728 7.168 25.6 9.216 12.288 1.536 35.84 7.168 55.296 11.776 14.848 3.584 26.624 6.144 30.72 6.656h2.56v-10.24c-0.512-0.512-1.024-1.024-1.536-1.024z" fill="#1296db" p-id="10932"></path><path d="M984.064 347.648c2.048-1.536 4.608-3.584 6.656-5.12 0-2.048 0.512-4.096 0.512-7.168-9.216 8.704-25.6 20.992-33.28 26.624-9.216 6.656-13.824 10.24-15.872 12.8-4.096 4.608-10.24 3.584-10.24 3.584l-2.56-0.512-83.456 76.8V460.8l-1.536 1.536s-3.072 2.56-8.704 8.192V476.16c-4.608 4.096-16.896 15.36-35.84 33.792-15.36 14.848-25.6 20.48-36.352 22.016v10.24c12.288-2.048 25.088-7.68 43.008-25.088 12.8-12.288 22.528-21.504 29.184-27.648V486.4l9.728-9.216v-8.704l87.04-79.872c4.096 0 11.264-0.512 17.408-7.168 1.536-1.536 8.192-6.656 14.336-11.264 5.632-4.096 10.24-7.68 14.848-11.264l0.512-8.192 4.608-3.072zM117.248 412.16h-1.024c0 3.072 0 6.656 0.512 10.24h5.12v-10.24c-2.048-0.512-3.584 0-4.608 0zM28.16 386.56v-1.536l10.752-1.024v-5.12c-2.048-0.512-4.096-0.512-5.12-1.024-3.584-0.512-4.096-2.56-4.608-4.096l-10.24 0.512c0 3.584 2.56 9.728 9.216 12.288zM111.616 412.16h-2.048c-1.536 0-14.848-2.56-28.16-5.12-19.968-3.584-43.008-8.192-48.128-8.704-1.024 0-2.56-0.512-4.096-1.536v-0.512c-3.584-2.56-6.656-5.632-7.68-7.168l-8.192 6.144c0.512 1.024 6.656 8.704 14.848 11.776v0.512c1.024 0.512 2.048 0.512 3.584 1.024 5.632 0.512 29.184 5.12 48.128 8.704 17.408 3.072 27.136 5.12 28.672 5.12h3.584c0-3.584 0-7.168-0.512-10.24z" fill="#1296db" p-id="10933"></path><path d="M834.56 470.016c5.632-5.12 8.704-7.68 8.704-8.192l1.536-1.536v-6.144l-10.752 9.728v6.144h0.512zM325.632 483.84h5.12v-10.24h-5.12v10.24zM267.776 464.384c-11.264-2.048-19.968-3.584-24.064-4.096-11.264-1.024-22.016-7.68-22.016-7.68l-0.512-0.512H220.16c-0.512 0-10.752-2.56-24.576-5.12 0 3.072 0 6.656 0.512 10.752 10.24 2.048 18.432 4.096 20.992 4.608 3.072 1.536 13.824 7.68 25.6 8.704 3.584 0.512 12.8 2.048 23.552 4.096 22.016 4.096 41.984 7.68 55.296 8.704v-10.24c-14.848-1.536-37.376-6.144-53.76-9.216zM942.08 397.312c-4.096 4.608-10.24 3.584-10.24 3.584l-2.56-0.512-84.48 76.8v3.584l-1.536 1.536s-3.072 2.56-8.192 7.68v8.704c-4.608 4.096-16.896 15.36-35.84 33.792-15.36 14.848-25.6 20.48-36.352 22.016v10.24c12.8-2.048 25.088-7.68 43.52-25.088 23.552-23.04 37.376-34.816 37.376-34.816l1.536-1.536v-12.288l87.04-79.872c4.096 0 11.264-0.512 17.408-7.168 1.536-1.536 6.144-5.632 11.264-9.728 6.144-5.12 11.776-9.728 16.384-13.824l1.024-14.848c-8.192 7.68-18.944 16.384-23.552 20.48-7.168 6.144-11.264 9.216-12.8 11.264zM556.032 516.096v10.24l5.632 1.024v-10.24l-5.632-1.024zM541.696 518.656c-3.584-0.512-16.384-3.072-29.696-6.144-19.456-4.608-43.52-10.24-56.32-11.776-14.848-2.048-18.944-5.12-19.456-6.144l-0.512-2.048-100.864-18.432v10.24L429.056 501.76c3.072 3.072 9.728 7.168 25.6 9.216 12.288 1.536 35.84 7.168 55.296 11.776 14.848 3.584 26.624 6.144 30.72 6.656h2.048v-10.24c-0.512-0.512-1.024-0.512-1.024-0.512zM747.52 555.52c-13.824 0-70.656-14.336-91.648-19.968l-29.184-5.632v10.24l27.136 5.12c3.072 1.024 75.776 19.968 94.208 19.968 4.096 0 7.68 0 11.264-0.512v-10.24c-4.096 1.024-7.68 1.024-11.776 1.024zM117.248 434.176h-0.512c0 3.584 0 6.656 0.512 10.24h5.12c0-3.584 0-6.656-0.512-10.24h-4.608zM125.952 433.664c0 3.584 0 6.656 0.512 10.24h4.096c0-3.584-0.512-6.656-0.512-10.24h-4.096zM112.64 434.176h-2.56c-1.536 0-14.848-2.56-28.16-5.12-14.336-2.56-29.696-5.632-39.424-7.168-4.096-0.512-7.168-1.024-8.192-1.536-3.584-0.512-4.608-2.56-4.608-4.096l-10.24 0.512c0 4.096 3.072 12.288 13.312 13.312 1.536 0 5.632 1.024 10.24 2.048 9.728 2.048 24.576 4.608 36.864 7.168 17.408 3.072 27.136 5.12 29.184 5.12h4.096c0-3.584 0-6.656-0.512-10.24zM42.496 422.912v0z" fill="#1296db" p-id="10934"></path><path d="M844.8 480.768v-3.584l-9.728 9.216v3.584c5.12-5.12 8.192-7.168 8.192-7.68l1.536-1.536zM195.072 423.936c0-4.096 2.048-6.656 4.096-7.68l-6.144-1.536c-1.536 2.048-3.072 5.12-3.072 9.216 1.536 0.512 3.584 0.512 5.12 1.024v-1.024zM133.12 352.768c0.512-0.512 1.024-1.024 3.072-1.536 1.536 0.512 6.656 1.536 10.24 1.536 0-0.512 0.512-1.024 0.512-1.024l1.024-4.096c-1.536 0-6.656-1.024-10.752-1.536h-0.512c-4.096 0-6.144 1.536-7.68 3.072-3.584 4.608-2.048 12.8-2.048 12.8 0 0.512 0.512 12.288 1.024 29.184h5.12c-0.512-17.408-1.024-29.184-1.024-30.208 0-1.024-1.024-6.144 1.024-8.192zM173.056 357.888c-4.608-1.536-13.312-3.584-22.016-5.12v0.512c3.072 0.512 9.216 2.048 13.312 2.56 4.096 1.024 6.656 2.048 8.704 2.048zM134.656 422.4c-1.536 0-3.072-0.512-5.12-0.512 0 4.096 0.512 7.68 0.512 11.776 2.048 0 3.584 0 5.12 0.512-0.512-4.096-0.512-8.192-0.512-11.776zM133.632 401.92h-5.12c0 3.072 0 6.656 0.512 9.728 2.048 0 3.584 0 5.12 0.512 0-3.584 0-7.168-0.512-10.24zM189.952 434.176c0 3.072 0 7.168 0.512 11.776 1.536 0.512 3.584 0.512 5.12 1.024 0-4.608 0-8.192-0.512-11.776-1.536-0.512-3.584-0.512-5.12-1.024zM195.072 574.464c0.512 6.144 0 14.336-1.024 17.408 0 0.512-0.512 1.024-0.512 1.536-0.512 2.56-1.024 3.072-6.656 2.048-5.12-1.536-17.408-4.096-28.672-6.144-8.192-2.048-16.896-3.584-17.92-4.096-0.512 0-1.024-0.512-1.536-2.048-0.512-1.024-1.536-3.584-0.512-6.656 2.048-5.632 2.048-20.48 1.024-33.792-0.512-5.632-2.048-53.248-3.584-97.792-1.536-0.512-3.072-0.512-5.12-0.512 1.536 45.056 3.584 92.672 3.584 98.304 0.512 7.168 1.024 26.624-1.024 31.744-1.536 3.584-1.024 7.168 0.512 10.752 1.024 2.56 3.072 4.096 5.12 4.608 1.024 0.512 7.68 2.048 18.432 4.096 10.752 2.56 23.04 5.12 28.672 6.144 2.048 0.512 4.096 1.024 5.12 1.024 4.608 0 6.656-2.56 7.68-6.144 0-0.512 0-1.024 0.512-1.024 1.024-3.584 2.048-12.8 1.536-19.456-0.512-3.584-3.072-73.216-4.096-116.224-1.536-0.512-3.584-0.512-5.12-1.024 0.512 41.984 2.56 112.128 3.584 117.248z" fill="#1296db" p-id="10935"></path><path d="M179.2 357.376v1.536c5.12 0.512 13.312 2.048 17.92 2.56 1.536 2.048 3.584 5.632 3.584 7.68 0 0.512 0 1.024-0.512 1.024-4.608 3.584-4.096 20.992-2.56 34.816 2.048 0.512 3.584 0.512 5.12 1.024-1.024-14.848-1.024-29.696 0.512-31.744 1.536-1.024 2.56-2.56 2.56-4.608 0.512-5.12-4.608-11.776-5.12-12.288l-1.024-0.512h-1.024c-1.024 0-19.456-3.072-22.528-3.072-1.024 0-6.144-1.024-10.752-2.048-10.24-2.048-14.848-3.072-16.384-3.072l1.536 0.512c28.672 5.632 28.672 6.144 28.672 8.192zM197.632 410.624c-1.536 0.512-3.072 2.048-4.608 4.096l6.144 1.536c1.024-1.024 2.048-1.024 2.048-1.024l2.048-0.512v-2.048c0-2.048-0.512-4.096-0.512-6.144-1.536-0.512-3.584-0.512-5.12-1.024-0.512 1.536-0.512 3.584 0 5.12zM133.632 391.68h-5.12c0 3.072 0 6.656 0.512 10.24h5.12c-0.512-3.584-0.512-7.168-0.512-10.24zM134.144 412.16c-1.536 0-3.072-0.512-5.12-0.512 0 3.072 0.512 6.656 0.512 10.24 2.048 0 3.584 0 5.12 0.512 0-3.584-0.512-7.168-0.512-10.24zM189.952 423.424v10.752c1.536 0.512 3.584 0.512 5.12 1.024v-10.752c-2.048 0-3.584-0.512-5.12-1.024zM190.464 445.952c0 3.072 0 6.656 0.512 10.752 1.536 0.512 3.584 0.512 5.12 1.024 0-3.584 0-7.168-0.512-10.752-2.048-0.512-3.584-0.512-5.12-1.024zM135.168 434.176c-1.536 0-3.072-0.512-5.12-0.512 0 3.584 0.512 6.656 0.512 10.24 2.048 0 3.584 0 5.12 0.512-0.512-3.584-0.512-6.656-0.512-10.24zM147.968 348.16c0.512 0 0.512 0 0 0z" fill="#1296db" p-id="10936"></path><path d="M173.056 357.888c-1.536 3.072-2.048 8.192-1.536 11.264 0 2.048 0 3.072-0.512 3.584-2.56-0.512-13.312-2.56-16.384-3.072h-0.512c-3.584-0.512-5.632-0.512-6.144-4.608-0.512-5.632 3.072-11.264 3.072-11.264V353.28c-1.024 0-2.048-0.512-2.048 0h-2.048c-1.024 2.56-3.072 7.168-2.56 12.288 0.512 7.68 6.656 8.192 10.24 8.192h0.512c2.56 0 11.776 2.048 16.896 3.072h0.512c0.512 0 1.536-0.512 2.56-1.024 1.536-1.536 2.048-3.584 2.048-6.656-0.512-7.168 1.024-9.728 2.048-9.728l2.048-0.512c-1.536 0-3.072-0.512-3.584-0.512-2.56 0-3.584 0-4.608-0.512z" fill="#1296db" p-id="10937"></path><path d="M146.432 353.28h4.096v-0.512c8.704 2.048 17.92 4.096 22.016 5.12 1.024 0 2.048 0.512 2.56 0.512s2.048 0 3.584 0.512v-1.536c0-2.048 0-2.56-29.184-9.216H147.968l-1.024 4.096s0 0.512-0.512 1.024zM161.28 535.04v-4.096c-3.072 2.048-10.24 7.68-10.24 16.384 0 10.752 0 22.528 4.608 24.064 3.072 1.024 8.704-1.024 12.288-2.56l2.048-24.064-8.704-9.728z m1.536 25.088c-2.56 0-5.12-3.584-5.12-7.68s2.048-7.68 5.12-7.68c2.56 0 5.12 3.584 5.12 7.68s-2.56 7.68-5.12 7.68zM171.008 565.248v2.048z" fill="#1296db" p-id="10938"></path><path d="M168.96 525.824l2.048 39.424-1.024-44.032-8.704-2.048v11.776l1.024-1.024 6.656-4.096zM167.936 568.832l3.584 1.024v-2.56c-0.512 0-2.048 0.512-3.584 1.536z" fill="#1296db" p-id="10939"></path><path d="M168.96 525.824l-6.656 4.608-1.024 1.024v4.096l8.704 9.728-2.048 24.064c2.048-1.024 3.072-1.536 3.584-1.536v-2.048l-2.56-39.936zM621.568 506.88l5.12 1.024v-0.512c0-4.608 2.56-7.168 4.096-8.192l-6.144-1.024c-1.536 1.536-3.072 4.608-3.072 8.704zM612.352 437.248v1.536c5.12 1.024 13.312 2.56 17.408 3.072 2.048 3.072 4.608 8.192 2.56 9.728-4.608 3.584-4.096 23.552-3.584 36.864l5.12 1.024c-1.024-15.36-0.512-31.744 1.536-33.792 6.656-5.12-1.024-16.384-2.048-17.408l-0.512-1.024h-1.024c-1.024 0-19.456-3.584-22.528-4.096-1.024 0-6.144-1.536-10.752-2.56-9.728-2.56-13.824-3.584-15.872-3.584h1.024c28.672 7.168 28.672 8.192 28.672 10.24zM565.248 440.832c-0.512-1.536-1.024-7.168 1.024-9.728 0.512-0.512 1.024-1.024 3.072-1.024 2.048 0.512 6.656 1.536 10.24 2.048 0-0.512 0.512-1.024 0.512-1.024l1.024-4.096c-1.536 0-6.656-1.024-10.752-2.048h-0.512c-4.096 0-6.144 1.536-7.68 3.072-4.096 4.608-2.56 13.312-2.56 13.824s0 13.824 0.512 33.792l5.12 1.024c0.512-20.992 0-35.328 0-35.84zM561.152 495.104l5.12 1.024V486.4l-5.12-1.024v9.728z" fill="#1296db" p-id="10940"></path><path d="M606.208 437.76c-4.608-1.536-13.312-3.584-22.016-6.144v0.512c3.072 0.512 9.216 2.048 13.312 3.072 4.096 1.024 6.656 2.048 8.704 2.56zM623.104 665.6c0.512 6.144-0.512 15.36-1.536 18.432 0 0.512-0.512 1.024-0.512 1.536-0.512 1.536-0.512 2.048-1.024 2.56-0.512 0-1.536 0.512-5.632-0.512-5.12-1.536-17.408-4.608-28.672-7.168-8.192-2.048-16.896-4.096-17.92-4.608 0 0-1.024-0.512-1.536-2.048-0.512-1.024-1.536-4.096 0-7.168 2.56-6.144 2.56-21.504 2.048-35.84 0-6.144-1.024-55.296-1.536-101.888l-5.12-1.024c0.512 47.104 1.536 96.768 1.536 102.912 0 7.68 0.512 27.648-1.536 33.792-1.536 3.584-1.024 7.68 0.512 11.264 1.024 2.56 3.072 4.096 4.608 4.608 1.024 0.512 7.68 2.048 18.432 4.608s23.04 5.632 28.16 7.168c2.048 0.512 4.096 1.024 5.632 1.024 1.536 0 3.072-0.512 4.096-1.024 2.56-1.536 3.072-3.584 3.584-5.632 0-0.512 0-1.024 0.512-1.024 1.024-3.584 2.56-13.312 2.048-20.48-0.512-4.096-1.024-79.36-1.536-124.928l-5.12-1.024c-1.024 45.056 0 120.832 0.512 126.464zM621.568 528.896l5.12 1.024v-11.776l-5.12-1.024v11.776zM561.152 505.344v11.776l5.12 1.024v-11.776l-5.12-1.024zM634.88 497.152v-2.048c0-2.048-0.512-4.096-0.512-6.144l-5.12-1.024c0 2.048 0 4.096 0.512 5.632-1.536 0.512-3.072 2.048-4.608 4.096l6.144 1.024c1.024-1.024 2.048-1.024 2.048-1.024l1.536-0.512zM566.272 486.4v-10.24l-5.12-1.024v10.24l5.12 1.024z" fill="#1296db" p-id="10941"></path><path d="M561.152 505.344l5.12 1.024v-10.24l-5.12-1.024v10.24zM621.568 506.88v10.24l5.12 1.024v-10.24l-5.12-1.024zM566.272 518.144l-5.12-1.024v10.24l5.12 1.024c0.512-3.072 0.512-6.656 0-10.24zM621.568 528.896v10.24l5.12 1.024v-10.24l-5.12-1.024zM606.208 437.76c-2.048 3.072-2.048 8.704-2.048 12.288 0 2.56-0.512 3.072-0.512 3.584-2.56-0.512-13.312-3.072-16.384-3.584h-0.512c-3.584-0.512-5.632-1.024-6.144-5.12-0.512-5.632 3.072-11.776 3.072-12.288v-0.512c-1.024 0-2.048-0.512-2.048-0.512h-2.048c-1.024 2.56-3.584 7.68-3.072 13.312 0.512 8.192 6.656 8.704 9.728 8.704h0.512c2.56 0.512 12.8 2.56 16.896 3.584h0.512c0.512 0 1.536-0.512 2.56-1.024 1.536-1.536 2.048-3.584 2.048-7.168 0-7.168 1.536-10.24 2.048-10.24l2.048-0.512c-1.536-0.512-3.072-0.512-3.584-0.512h-3.072zM582.656 427.008h-1.024c0-0.512 0.512-0.512 1.024 0z" fill="#1296db" p-id="10942"></path><path d="M579.584 431.616h2.048c0.512 0 1.024 0 2.048 0.512v-0.512c8.704 2.048 17.408 4.608 22.016 6.144 1.024 0 2.048 0.512 2.56 0.512s2.048 0 3.584 0.512v-1.536c0-2.048 0-2.56-29.184-10.24h-2.048l-1.024 4.096c0.512 0 0.512 0 0 0.512zM599.04 633.856l-8.704-10.24v-4.096c-3.072 2.048-10.24 8.192-10.24 16.896 0 11.264-0.512 23.552 4.096 25.088 2.56 1.024 8.704-1.024 12.288-2.56l2.56-25.088z m-7.68 15.872c-2.56 0-5.12-3.584-5.12-8.192s2.56-7.68 5.12-7.68 5.12 3.584 5.12 8.192c0 4.096-2.56 7.68-5.12 7.68zM599.552 657.408v-2.048z" fill="#1296db" p-id="10943"></path><path d="M598.528 613.888l0.512 19.456 0.512 22.016v-46.08l-8.704-2.56-0.512 12.288 1.024-1.024 7.168-4.096zM595.968 658.944l3.584 1.536v-3.072s-1.536 1.024-3.584 1.536z" fill="#1296db" p-id="10944"></path><path d="M599.04 633.856l-2.56 25.6c2.048-1.024 3.072-1.536 3.584-1.536v-2.048l-1.024-22.016z" fill="#1296db" p-id="10945"></path><path d="M599.04 633.856l-0.512-19.456-6.656 4.608-1.024 1.024v4.096l8.192 9.728zM327.68 619.52c1.536 0.512 3.072 0.512 4.608 1.024v-5.12c-1.536-0.512-3.072-0.512-4.608-1.024v5.12zM277.504 645.632c-2.56-2.56-17.408-19.456-22.528-36.352-1.536-5.12-3.072-8.704-4.096-11.264-2.56-7.168-4.096-10.24-3.072-23.04v-3.584l-2.56 0.512v4.608h-1.024v-4.608c-3.072 0.512-8.704 1.024-9.728-1.024-2.048-4.096-0.512-18.432 1.536-19.968 3.584-2.56 6.144-3.584 6.144-3.584l1.024-0.512 1.536-10.752v-10.24l0.512-0.512h-0.512v-1.024l1.536 0.512 3.584-2.56c20.992 4.096 51.2 10.24 55.808 11.264 1.024 3.072 1.024 16.384 0.512 20.992-0.512 4.096 1.536 30.72 2.048 38.4l-5.12 2.56c0 0.512-0.512 1.536-1.024 1.536l-0.512-1.024-0.512 0.512-12.8-3.072 10.752 18.432h2.048l-0.512 1.024h-1.024l0.512 1.024h1.024c5.632 1.024 13.312 2.56 21.504 4.608v-5.12c-9.216-2.048-16.896-3.584-19.456-4.096l-5.12-8.704 3.072 0.512 11.776-6.144v-1.536c-1.024-14.336-2.56-36.352-2.048-39.424 0 0 1.536-23.552-3.072-26.112-2.048-1.024-37.888-8.192-58.88-12.288h-1.024l-9.216 6.144v12.288l-1.024 7.68c-1.024 0.512-3.072 1.536-5.12 3.072-5.12 3.584-6.144 22.016-3.072 27.136 2.56 4.096 8.704 4.608 12.288 4.096-0.512 11.776 1.024 15.36 3.584 22.016 1.024 2.56 2.56 6.144 4.096 11.264 5.632 17.92 20.48 35.328 23.552 38.4 2.048 2.048 23.552 7.68 50.176 14.336v-5.12c-24.064-5.12-43.52-10.24-45.568-11.264zM328.192 658.944v5.12c1.536 0.512 3.072 1.024 5.12 1.024v-5.12c-2.048-0.512-3.584-0.512-5.12-1.024zM411.648 638.464c8.192 3.584 23.552 6.656 24.064 7.168h1.024l1.024-0.512c15.872-9.728 15.872-10.752 15.872-12.288v-6.144l-5.12-0.512-0.512-7.168h-1.024v-1.024h1.024v-1.024l-1.536-0.512c-4.096-1.024-8.704-2.56-10.24-3.584v-0.512c-0.512-11.776 0.512-14.848 1.536-15.36 3.584-3.584 10.24-10.752 10.24-10.752l0.512-1.024v-1.024c-0.512-7.168-1.024-14.848-1.024-17.92h-0.512v-1.024h0.512c1.024-0.512 2.048-1.024 4.608-2.048 2.56-0.512 20.48 3.584 31.232 6.144 10.24 2.56 16.896 4.096 18.944 4.096 3.072 0 6.144-0.512 8.192 1.536 1.536 1.536 2.56 5.632 2.56 11.264v48.64l-3.072 3.072v1.536h-1.024v-1.024c-0.512 0.512-1.536 1.024-2.048 1.024-2.56 0-10.752-2.048-16.384-3.584l-0.512 2.56h-1.024l0.512-2.56h-0.512l-2.048-0.512-1.024 2.048c-7.168 15.36-16.384 33.28-18.944 34.816-1.024 0.512-2.048 1.536-3.072 2.048-4.608 4.096-12.288 11.264-55.808 3.072-22.016-4.096-48.64-10.24-71.68-15.872v5.12c24.576 5.632 51.712 11.776 70.656 15.36 14.336 2.56 25.088 4.096 33.792 4.096 17.408 0 23.04-5.12 26.624-8.192 0.512-0.512 1.536-1.024 2.048-1.536 5.12-2.56 15.872-25.6 20.48-35.328 4.608 1.024 14.336 3.584 17.92 3.584 5.12-0.512 9.728-6.144 10.24-7.168l0.512-0.512v-1.024c0-0.512-0.512-32.256 0-49.664 0-7.168-1.024-12.288-4.096-14.848-3.584-3.584-8.192-3.072-11.264-3.072-2.048 0-10.24-2.048-17.92-4.096-22.528-5.632-31.232-7.168-33.792-6.144-4.096 1.536-6.144 2.56-7.68 4.096-1.024 1.024-2.048 2.048 0 20.992-2.048 2.048-6.656 7.168-9.216 9.728-3.072 3.584-3.072 11.776-3.072 19.456v1.024c0 1.536 0 3.584 12.288 7.168l0.512 9.728 4.608 0.512v0.512c-2.048 1.536-7.68 5.12-12.8 8.704-3.584-0.512-15.36-3.584-22.016-6.656-5.12-2.56-46.592-11.264-77.312-17.408v5.12c31.744 7.168 70.144 15.36 74.752 17.408z" fill="#1296db" p-id="10946"></path><path d="M250.88 528.384c-3.072 0-5.632 3.072-5.632 6.656s2.56 6.656 5.632 6.656 5.632-3.072 5.632-6.656-2.56-6.656-5.632-6.656zM290.816 550.912c3.072 0 5.632-3.072 5.632-6.656s-2.56-6.656-5.632-6.656-5.632 3.072-5.632 6.656 3.072 6.656 5.632 6.656zM457.728 571.904c-3.584 0-6.656 3.072-6.656 6.656s3.072 6.656 6.656 6.656 6.656-3.072 6.656-6.656-3.072-6.656-6.656-6.656zM500.224 593.408c3.584 0 6.656-3.072 6.656-6.656s-3.072-6.656-6.656-6.656-6.656 3.072-6.656 6.656 3.072 6.656 6.656 6.656zM123.392 712.704c-1.024-36.864-4.096-173.568-6.656-268.288H112.64c2.56 94.208 5.632 229.888 6.656 267.264 0.512 0 1.024 0 1.536 0.512 1.024 0 2.048 0.512 2.56 0.512zM121.856 444.416c2.56 104.96 6.656 228.864 8.704 268.8v0.512c1.024 0 2.56-0.512 4.096-1.024-2.048-40.448-6.144-163.328-8.704-268.288-1.024-0.512-2.56-0.512-4.096 0zM114.176 350.208c-0.512-8.704 3.072-13.312 5.632-14.848 0 16.384 0.512 35.84 1.024 56.832h4.096c-0.512-20.992-1.024-39.936-1.024-56.32-3.072-0.512-6.144-0.512-9.216-1.024-2.56 3.072-5.12 8.192-4.608 15.872 0 3.072 0.512 18.432 1.536 41.984h4.096c-1.024-24.064-1.024-39.424-1.536-42.496z" fill="#1296db" p-id="10947"></path><path d="M134.144 723.456c-1.536 0.512-3.584 0.512-4.608 0.512-0.512 0-3.072-1.536-5.632-3.584v-8.192c-1.024 0-1.536-0.512-2.56-0.512-0.512 0-1.024 0-1.536-0.512v10.752l0.512 0.512c1.536 1.024 5.632 5.12 8.704 5.12 2.56 0 8.192-1.024 8.704-1.536l3.584-0.512-2.56-2.56s-3.584-3.584-4.096-10.752v-0.512c-1.536 0.512-3.072 1.024-4.096 1.024 0.512 5.12 2.048 8.704 3.584 10.752zM120.832 391.68v10.24h4.096v-10.24h-4.096zM111.616 392.192c0 3.072 0 6.656 0.512 10.24h4.096c0-3.584 0-7.168-0.512-10.24h-4.096zM121.344 411.648v10.24h4.096v-10.24h-4.096zM112.128 412.16c0 3.072 0 6.656 0.512 10.24h4.096c0-3.584 0-7.168-0.512-10.24h-4.096zM112.64 434.688c0 3.584 0 6.656 0.512 10.24h4.096c0-3.584 0-6.656-0.512-10.24-1.536-0.512-3.072 0-4.096 0zM121.856 434.176c0 3.584 0 6.656 0.512 10.24h4.096c0-3.584 0-6.656-0.512-10.24-1.536-0.512-2.56-0.512-4.096 0zM336.896 666.112c-1.536-0.512-2.56-0.512-4.096-1.024 0.512 39.936 1.536 72.192 2.56 88.576l4.096 1.024v-1.024c-1.024-16.384-1.536-48.128-2.56-87.552zM325.632 483.84c-1.536 0-2.56 0-4.096-0.512 0.512 39.424 1.536 86.016 2.048 130.048 1.536 0.512 2.56 0.512 4.096 1.024-1.024-44.032-1.536-91.136-2.048-130.56zM320.512 431.104c1.536 0 2.56 0.512 4.096 0.512-0.512-22.528-0.512-37.376-1.024-40.448-0.512-8.704 3.072-13.312 5.632-14.848-1.536-0.512-3.072-0.512-5.12-1.024-2.56 3.072-5.12 8.192-4.608 16.384 0.512 2.56 0.512 17.408 1.024 39.424zM329.728 431.616H333.824c0-19.968-0.512-38.4-0.512-54.272-1.536-0.512-2.56-0.512-4.096-1.024 0 15.872 0.512 34.816 0.512 55.296zM328.192 664.064c-1.536-0.512-2.56-0.512-4.096-1.024 0.512 41.984 1.024 76.288 1.024 91.136h4.096c0-14.848-0.512-48.64-1.024-90.112zM330.752 483.84c0.512 43.52 1.024 89.088 1.536 131.584 1.536 0.512 2.56 0.512 4.096 1.024-0.512-42.496-1.024-88.576-1.536-132.608h-4.096z" fill="#1296db" p-id="10948"></path><path d="M335.36 754.176c0 4.608 2.048 8.704 3.584 11.264h-0.512c-1.024 0-5.12-2.048-9.216-4.608v-6.656h-4.096v8.704l1.024 0.512c2.56 1.536 9.216 5.632 12.288 5.632 2.56 0 4.608-0.512 4.608-0.512l3.584-1.024-2.56-2.56s-4.096-4.096-5.12-10.24l-3.584-0.512zM324.608 441.856v-10.24c-1.536 0-2.56 0-4.096-0.512v10.24c1.536 0 3.072 0 4.096 0.512zM334.336 441.856v-10.24H330.24v10.24h4.096zM334.336 451.584h-3.584v10.24h3.584v-0.512-9.728zM321.024 451.072v10.24c1.536 0 2.56 0 4.096 0.512v-10.24c-1.536 0-2.56-0.512-4.096-0.512zM325.12 473.6c-1.024 0-2.56 0-4.096-0.512v10.24c1.536 0 2.56 0 4.096 0.512 0.512-3.584 0.512-6.656 0-10.24zM333.824 473.6h-3.584v10.24h4.096v-10.24h-0.512zM332.8 659.968v5.12c1.536 0.512 2.56 0.512 4.096 1.024v-5.12c-1.536-0.512-2.56-0.512-4.096-1.024zM332.288 620.544c1.536 0.512 2.56 0.512 4.096 1.024v-5.12c-1.536-0.512-2.56-0.512-4.096-1.024v5.12zM324.096 657.92v5.12c1.536 0.512 2.56 0.512 4.096 1.024v-5.12c-1.536-0.512-3.072-0.512-4.096-1.024zM327.68 619.52v-5.12c-1.536-0.512-2.56-0.512-4.096-1.024v5.12c1.024 0.512 2.56 1.024 4.096 1.024zM553.984 615.424c0.512-29.696 1.536-59.904 2.048-88.576l-2.56-0.512c-0.512 0.512-1.024 0.512-1.536 1.024-0.512 28.672-1.024 58.368-2.048 88.064-1.536 77.312-3.072 150.016-2.048 178.176 0 3.072 1.024 7.168 2.048 10.752 1.536 0 2.56 0 4.096 0.512-1.024-4.096-2.048-8.192-2.048-11.264-1.024-28.16 0.512-101.376 2.048-178.176zM542.72 781.312c0-9.216 2.56-151.04 3.584-252.416h-4.096c-1.536 103.424-3.584 249.856-3.584 252.416 0 6.656 0 16.384 1.024 23.552 1.024-0.512 2.56-0.512 4.096-1.024-0.512-5.632-1.024-14.848-1.024-22.528zM543.232 428.032V476.16c2.56 0 3.584 0 4.096-0.512 0.512-26.624 0.512-44.544 0-47.616-0.512-4.096 0.512-6.656 1.024-9.216-1.024 0-2.56-0.512-4.096-1.024-1.024 3.072-1.536 6.144-1.024 10.24zM552.96 419.84v53.76H554.496l2.56 0.512c0-19.456 0.512-37.888 0-53.76-1.536 0-2.56-0.512-4.096-0.512z" fill="#1296db" p-id="10949"></path><path d="M552.448 813.056c-2.56-0.512-5.632-1.024-6.656-1.536-1.024-0.512-1.536-3.584-2.048-7.168-1.536 0-2.56 0.512-4.096 1.024 1.024 5.12 2.048 9.216 4.096 10.24 2.56 1.024 10.24 2.56 11.264 2.56l3.584 0.512-1.024-3.072s-1.536-5.12-3.072-10.752c-1.536 0-3.072-0.512-4.096-0.512 0.512 3.072 1.536 6.144 2.048 8.704zM553.984 473.6H552.448c-2.56 0-4.096 1.024-5.12 2.048 0 0-0.512 0-0.512 0.512v-0.512c-0.512 0.512-1.536 0.512-4.096 0.512v10.24c1.536 0.512 3.072 0 4.096 0v0.512c2.56-1.024 4.096-1.536 5.632-2.56 0.512 0 0.512 0 1.024-0.512l3.072 0.512v-10.24l-2.56-0.512zM542.72 496.64v10.24h4.096v-10.752c-0.512 0-1.536 0.512-4.096 0.512zM553.984 493.568H552.448v0.512c-2.56-0.512-4.096 0.512-5.12 1.536 0 0-0.512 0-0.512 0.512V506.88c2.56-0.512 4.096-1.024 5.632-2.048v-0.512c0.512 0 0.512-0.512 1.024-0.512l3.072 0.512v-10.24l-2.56-0.512zM553.984 516.096h-2.048v-0.512c-2.048 0.512-3.584 1.536-4.096 2.048-0.512 0-0.512 0.512-1.024 0.512v0.512h-4.096v10.24h4.096v-0.512c2.56-0.512 4.096-1.024 5.12-1.536v0.512c0.512-0.512 1.024-0.512 1.536-1.024l2.56 0.512v-10.24l-2.048-0.512zM552.96 412.672c-1.536 1.024-3.072 3.072-4.096 5.632 2.56 0.512 4.096 0.512 4.608 1.024-0.512-2.048-0.512-4.096-0.512-6.656z" fill="#1296db" p-id="10950"></path><path d="M121.344 329.728l2.56-0.512v6.144c24.064 2.048 69.632 12.288 113.664 22.016 26.624 6.144 52.224 11.264 73.216 15.36 3.584 0.512 8.192 1.536 13.312 2.56 3.072-3.584 6.144-4.608 6.144-4.608l2.56-0.512v6.656c61.44 11.776 178.176 34.816 210.944 40.96 3.072-8.192 9.728-10.24 9.728-10.24l2.56-0.512v13.312c31.232 5.12 88.064 14.848 100.352 18.432 4.608 1.024 10.752 3.584 18.432 6.656 19.456 7.68 46.592 18.432 70.656 18.944h1.024c3.584 0 6.656-0.512 10.24-1.024v-11.776h4.096v10.752c21.504-5.632 38.4-23.552 49.664-34.816 3.072-3.072 6.144-6.144 7.68-7.168 9.216-7.168 107.52-92.672 122.368-105.984 6.656-3.584 25.088-13.824 40.448-25.088 0.512-12.288 1.024-24.576 1.024-26.624-10.752 9.728-35.328 25.088-52.224 34.304l-2.048 1.536c-45.056 39.424-115.2 100.352-121.856 105.472-3.072 2.048-6.144 5.632-10.24 9.728-11.264 11.776-30.208 31.232-49.664 30.72-19.968-0.512-45.056-10.24-63.488-17.408-8.192-3.072-14.848-6.144-20.48-7.68-17.408-5.12-102.912-18.944-106.496-19.456-2.048-0.512-185.856-36.352-241.664-47.104-20.48-4.096-46.08-9.216-72.704-15.36-45.056-9.728-91.136-19.968-116.736-22.016-19.456-1.536-35.328-6.656-45.568-10.752l-3.072 1.536c-5.632 3.072-12.288 7.168-18.432 10.752 6.656 4.096 27.136 13.824 55.808 17.92 4.608-4.096 8.192-5.12 8.192-5.12zM329.216 376.32z" fill="#1296db" p-id="10951"></path><path d="M80.384 304.128c-8.192-3.584-12.8-6.656-12.8-6.656L61.44 306.176l-5.632 8.704s1.024 0.512 2.56 1.536c6.144-3.584 12.8-7.168 18.432-10.752 1.536-0.512 2.56-1.024 3.584-1.536zM123.904 331.776v-2.56l-2.56 0.512s-3.584 1.024-6.656 4.608c3.072 0.512 6.144 1.024 9.216 1.024v-3.584zM329.216 376.32c1.536 0.512 2.56 0.512 4.096 1.024v-6.656l-2.56 0.512s-3.584 1.024-6.144 4.608c1.536-0.512 3.072 0 4.608 0.512zM552.96 412.672v6.656h0.512c1.024 0 2.56 0.512 3.584 0.512v-13.312l-2.56 0.512s-7.168 2.048-9.728 10.24c1.536 0.512 3.072 0.512 4.096 1.024 0.512-2.56 2.56-4.096 4.096-5.632zM762.88 564.736c-1.536 0-2.56 0.512-4.096 0.512 0.512 53.76 0.512 111.616-1.536 136.704-3.584 42.496-5.632 126.976-6.144 159.232 1.024-0.512 2.56-1.536 4.096-3.072 0.512-34.304 2.56-115.2 6.144-156.16 2.048-24.576 2.048-82.944 1.536-137.216zM762.368 512c-0.512-20.992-0.512-38.912-1.024-49.664-1.536 0.512-2.56 0.512-4.096 1.024 0 10.752 0.512 28.16 1.024 49.152 1.536 0 2.56 0 4.096-0.512z" fill="#1296db" p-id="10952"></path><path d="M750.592 874.496h4.096c0-0.512 0-6.144 0.512-16.384-1.536 1.536-3.072 2.56-4.096 3.072 0 8.192-0.512 13.312-0.512 13.312zM758.272 523.264c1.536 0 2.56-0.512 4.096-0.512v-10.24c-1.536 0-2.56 0.512-4.096 0.512v10.24zM758.784 543.232c1.536 0 2.56-0.512 4.096-0.512v-10.24c-1.536 0-2.56 0.512-4.096 0.512v10.24zM758.784 565.248c1.536 0 2.56-0.512 4.096-0.512v-10.24c-1.536 0-2.56 0.512-4.096 0.512v10.24zM761.344 452.096h-4.096v11.776c1.536-0.512 2.56-0.512 4.096-1.024v-10.752zM260.096 552.96c-2.048 1.024-3.584 3.072-4.096 5.12-1.536 4.096-4.096 13.824-2.048 17.92 0.512 1.024 1.536 1.536 2.048 1.536 4.096 1.024 7.168 2.048 8.192 2.048v-0.512h1.024v0.512h0.512v-1.024s-5.632-20.48 5.12-25.6c2.56-1.024 4.096-2.048 5.12-2.56 2.048-1.024 2.048-1.024 2.048-1.536 0 0 0-0.512-0.512 0-1.024 0.512-2.56 1.024-6.656 3.072-10.24 5.12-7.168 22.016-6.144 26.112-1.536-0.512-4.096-1.024-7.68-2.048-0.512 0-1.024-0.512-1.536-1.536-1.536-3.072 0-10.752 2.048-16.896 2.048-5.632 9.728-10.752 9.728-10.752l-0.512-1.024s-3.072 2.048-6.144 5.12h0.512l-1.024 2.048zM293.376 586.752zM303.616 578.048v-1.024l-5.12 5.12c-2.048 1.536-4.608 3.584-5.12 3.584h-0.512l0.512 1.024c1.024-0.512 4.608-3.072 5.632-4.096l3.584-3.584c0.512 6.144 0.512 15.36-1.024 16.896l1.536-1.024c1.536-4.096 0.512-15.36 0.512-16.896zM274.432 575.488c1.024 6.144 2.56 7.68 2.56 8.192 4.096 1.024 13.312 2.56 15.872 3.072-0.512 0-0.512-0.512-0.512-1.024-2.56-0.512-9.728-2.048-14.848-3.072-0.512-0.512-2.048-3.584-3.072-12.8-1.024-9.728 12.8-16.896 12.8-16.896l-0.512-1.024c-0.512 0.512-14.848 7.168-13.312 17.92 0 1.536 0.512 3.072 0.512 4.608h0.512v1.024zM302.08 596.48l0.512 1.024c0.512-0.512 0.512-1.024 1.024-1.536l-1.536 0.512c0-0.512 0 0 0 0z" fill="#1296db" p-id="10953"></path><path d="M251.904 551.936c3.072-1.024 6.144 0.512 7.68 1.024 0-0.512 0.512-0.512 0.512-1.024-1.024-0.512-5.12-2.048-8.704-1.024-2.048 0.512-3.584 2.048-4.608 4.096-2.56 4.608-3.072 12.288-3.072 16.896h1.024c0-4.608 0.512-12.288 2.56-16.384 1.536-2.048 3.072-3.072 4.608-3.584zM244.224 571.904v4.608h1.024v-4.608h-1.024z" fill="#1296db" p-id="10954"></path><path d="M260.096 552.96l0.512-1.024h-0.512s-0.512 0.512 0 1.024zM264.192 580.096l-0.512 7.68-12.8-2.048 3.072-7.68-1.024-0.512-3.584 8.704 14.848 2.56h0.512l0.512-8.704h-1.024c0.512 0 0.512 0 0 0z" fill="#1296db" p-id="10955"></path><path d="M264.192 579.584c0 0.512 0.512 0.512 0 0l1.024 0.512v-0.512h-1.024zM295.424 623.104c-3.584-4.608-15.36-19.456-19.456-23.552-4.096-4.608-2.048-20.48-1.536-24.064v-1.024h-0.512c0 1.024-3.072 20.48 2.048 26.112 5.12 5.12 20.48 25.088 20.992 25.088l1.536 1.536-0.512-2.048c-0.512-2.56-1.536-9.216 1.024-11.264 0.512-0.512 1.536-0.512 2.048-0.512l-0.512-1.024c-1.024 0-1.536 0-2.56 1.024-3.072 1.536-3.072 7.168-2.56 9.728z" fill="#1296db" p-id="10956"></path><path d="M301.056 613.376l0.512-1.024h-2.048l0.512 1.024h1.024zM274.432 574.464v0zM481.28 598.528c-0.512 0-0.512 0.512-1.024 0.512l1.024-0.512zM479.744 599.552c-4.608 4.096-6.656 14.848-6.144 33.28v1.024c-1.536 0-6.144-1.536-10.24-3.072 0-2.048-0.512-11.776 0-17.408 0-6.656 6.144-16.384 6.656-16.384l-0.512-1.024c-1.536-0.512-8.704-2.048-9.728-2.048v1.024c0.512 0 5.632 1.024 8.704 2.048-1.536 2.56-6.144 10.752-6.656 16.384-0.512 6.656 0 17.92 0 17.92v0.512h0.512c10.752 3.584 11.776 3.072 11.776 3.072v-1.536c-0.512-21.504 2.56-29.696 5.632-32.768v-1.024zM492.032 628.736s-2.56-0.512-4.608-2.048c-1.024-1.024-0.512-6.656-0.512-10.24v-4.096c0-3.072 5.12-10.752 5.12-10.752l0.512-0.512-9.728-2.048-1.536 0.512 9.216 2.048c-1.024 2.048-4.608 7.68-4.608 10.752v3.584c-0.512 5.632-0.512 10.24 1.024 11.264 1.536 1.024 3.584 2.048 4.608 2.048l-1.536 5.632c0.512 0 0.512 0 1.024 0.512l1.024-6.656z" fill="#1296db" p-id="10957"></path><path d="M489.472 637.952h1.024l0.512-2.56c-0.512 0-0.512 0-1.024-0.512l-0.512 3.072zM470.528 596.48l6.656-5.12 6.656 3.072 0.512 3.072-3.072 1.536 1.536 0.512 2.56-1.536-1.024-4.096-7.68-3.584-7.68 6.144h1.536zM480.256 600.576l1.024-0.512-1.024 0.512c0.512-0.512 0.512-0.512 0 0zM479.744 599.552s0.512 0 0 0zM470.016 596.992z" fill="#1296db" p-id="10958"></path><path d="M481.28 599.04l-1.536 0.512h-0.512l0.512 1.024c0.512-0.512 0.512-0.512 1.024-0.512h0.512l1.536-0.512-1.536-0.512zM451.584 618.496s-1.536-11.264-1.024-14.336c0-2.048 7.68-9.216 12.288-13.824l-0.512-0.512c-1.536 1.024-12.288 11.264-12.8 14.336 0 2.56 1.024 11.264 1.024 13.824h-2.048v1.024l3.072-0.512zM447.488 617.984v1.024h1.024v-1.024z" fill="#1296db" p-id="10959"></path><path d="M508.416 600.064c-1.536 1.024-10.24 6.656-10.24 14.336 0 3.072-1.024 5.632-1.536 7.68-1.024 2.56-1.536 4.608-0.512 5.632 0.512 0.512 1.024 1.024 2.048 1.024 4.096 0.512 9.216-3.072 11.264-4.608v14.848c0.512 0 0.512-0.512 1.024-0.512v-16.384l-1.024 0.512s-6.656 5.632-11.264 5.12c-0.512 0-1.024-0.512-1.536-0.512-0.512-1.024 0-2.56 0.512-4.608s1.536-5.12 1.536-8.192c0-7.168 9.728-13.312 9.728-13.312 0.512-3.584 2.048-20.48 1.024-22.016-1.024-1.536-43.008-9.216-61.952-12.8l-0.512 0.512v0.512c24.064 4.096 59.904 11.264 61.952 12.288 1.024 0 0.512 10.752-0.512 20.48z" fill="#1296db" p-id="10960"></path><path d="M509.44 639.488h1.024v-1.536c-0.512 0.512-0.512 0.512-1.024 0.512v1.024zM448.512 565.248l-0.512 1.024h0.512v-1.024c-0.512 0-0.512 0 0 0zM301.568 556.544c-2.048 1.024-12.288 6.656-11.264 15.36 0 1.536 0.512 3.072 0.512 4.608 0.512 5.12 1.024 7.68 1.024 9.216h1.024c-0.512-1.024-1.024-5.12-1.536-9.216 0-1.536-0.512-3.072-0.512-4.608-1.024-8.192 10.752-14.336 10.752-14.336h0.512v-20.992l-56.32-11.776-1.024 1.024 56.32 11.776v18.944h0.512zM293.376 586.752c-0.512 0 0 0 0 0zM293.888 586.752c-0.512-0.512-0.512 0 0 0-0.512 0-0.512 0 0 0zM244.736 524.288v0.512l0.512 0.512 1.024-1.024z" fill="#1296db" p-id="10961"></path><path d="M292.864 586.752c0.512 0 0.512 0 0 0 0.512 0 0.512 0 0 0v-1.024h-0.512c0 0.512 0.512 0.512 0.512 1.024z" fill="#1296db" p-id="10962"></path></svg>