<svg width="315px" height="315px" viewBox="0 0 315 315" version="1.1" xmlns="http://www.w3.org/2000/svg" xmlns:xlink="http://www.w3.org/1999/xlink">
    <g id="页面-1" stroke="none" stroke-width="1" fill="none" fill-rule="evenodd" fill-opacity="0.1">
        <g id="画板备份" transform="translate(-764.9999, -73.1)" fill="#FFFFFF">
            <path d="M1049.043,74.1862069 C1046.32749,73.6431034 1043.06887,73.1 1040.35335,73.1 C900.775762,73.1 905.663693,243.091379 844.293003,294.686207 C843.206797,295.772414 841.577486,296.315517 839.948176,296.315517 C837.232659,296.315517 834.517141,294.686207 833.430934,291.97069 L833.430934,291.427586 C832.887831,290.341379 832.887831,289.798276 832.887831,288.712069 L832.887831,152.936207 C832.887831,145.875862 838.318866,140.444828 845.37921,140.444828 L902.948176,140.444828 C907.293003,140.444828 910.551624,138.272414 912.724038,134.47069 C922.4999,117.634483 933.905072,102.97069 948.025762,91.0224138 C955.62921,84.5051724 951.284383,73.1 942.594728,73.1 L805.189555,73.1 C782.922314,73.1 764.9999,91.0224138 764.9999,113.289655 L764.9999,347.910345 C764.9999,370.177586 782.37921,388.1 804.646452,388.1 C944.767141,388.1 939.336107,217.022414 1001.2499,165.97069 C1002.33611,164.884483 1003.96542,164.341379 1005.59473,164.341379 C1009.39645,164.341379 1012.65507,167.6 1012.65507,171.401724 L1012.65507,307.177586 C1012.65507,314.237931 1007.22404,319.668966 1000.16369,319.668966 L999.62059,319.668966 L942.051624,319.668966 C937.706797,319.668966 933.905072,321.841379 931.732659,325.643103 C921.956797,341.936207 910.551624,357.143103 896.430934,369.091379 C888.827486,375.608621 893.172314,387.013793 901.861969,387.013793 L1039.81024,387.013793 C1062.07749,387.013793 1079.9999,369.091379 1079.9999,346.824138 L1079.9999,113.289655 C1079.4568,94.2810345 1066.42231,78.5310345 1049.043,74.1862069" id="Fill-30"></path>
        </g>
    </g>
</svg>