
<svg width="143px" height="124px" viewBox="0 0 143 124" version="1.1" xmlns="http://www.w3.org/2000/svg" xmlns:xlink="http://www.w3.org/1999/xlink">
    <defs>
        <linearGradient x1="50%" y1="0%" x2="50%" y2="100%" id="linearGradient-nyx7b258b4-1">
            <stop stop-color="#FFFFFF" offset="0%"></stop>
            <stop stop-color="#E0F0FD" offset="100%"></stop>
        </linearGradient>
        <path d="M100.53216,0 C107.417698,0 113,5.58230232 113,12.4678401 L113,100.53216 C113,107.417698 107.417698,113 100.53216,113 L12.4678401,113 C5.58230232,113 0,107.417698 0,100.53216 L0,12.4678401 C0,5.58230232 5.58230232,0 12.4678401,0 Z M93.9079307,9.00687885 L19.0920693,9.00687885 C13.5307158,9.00687885 9.00577629,13.5307158 9.00577629,19.0920693 L9.00577629,93.9090333 C9.00577629,99.4692842 13.5307158,103.994224 19.0920693,103.994224 L93.9079307,103.994224 C99.4692842,103.994224 103.994224,99.4692842 103.994224,93.9090333 L103.994224,82.9583268 C107.387928,82.4312993 109.995502,79.4973655 109.995502,75.9581219 L109.995502,66.0206756 C109.995502,62.481432 107.387928,59.5474982 103.994224,59.0193681 L103.994224,48.1491492 C107.387928,47.621019 109.995502,44.6881879 109.995502,41.1489443 L109.995502,31.2114979 C109.995502,27.6722543 107.387928,24.7394232 103.994224,24.211293 L103.994224,19.0920693 C103.994224,13.5307158 99.4692842,9.00687885 93.9079307,9.00687885 Z M94.3289226,16.2980769 C96.2356253,16.2980769 97.7884615,17.8498561 97.7884615,19.7566102 L97.7884615,24.859238 C94.4047511,25.384557 91.8046021,28.3089793 91.8046021,31.8367492 L91.8046021,41.7419796 C91.8046021,45.2697495 94.4047511,48.1930728 97.7884615,48.7194908 L97.7884615,59.5544699 C94.4047511,60.0808879 91.8046021,63.0042112 91.8046021,66.53308 L91.8046021,76.4383105 C91.8046021,79.9671793 94.4047511,82.8905026 97.7884615,83.4158216 L97.7884615,94.3310273 C97.7884615,96.2377814 96.2356253,97.7884615 94.3289226,97.7884615 L19.7576159,97.7884615 C17.8498142,97.7884615 16.2980769,96.2377814 16.2980769,94.3310273 L16.2980769,19.7566102 C16.2980769,17.8498561 17.8498142,16.2980769 19.7576159,16.2980769 Z M46.9273049,46.576453 C35.2563063,46.576453 25.7612566,56.0717588 25.7612566,67.7441711 C25.7612566,79.4154845 35.2563063,88.9107902 46.9273049,88.9107902 C58.5983034,88.9107902 68.094452,79.4154845 68.094452,67.7441711 C68.094452,56.0717588 58.5983034,46.576453 46.9273049,46.576453 Z M46.3509496,71.9133232 L54.0732183,79.6355919 C49.3618937,82.5693523 43.3400055,82.5693523 38.6286809,79.6355919 L46.3509496,71.9133232 Z M58.7514084,59.5128645 C61.6851688,64.224189 61.6851688,70.2460773 58.7514084,74.9574018 L51.0291397,67.2351331 Z M33.9508806,59.5132543 L41.6731493,67.2355229 L33.9508806,74.9577916 C31.0171202,70.2464671 31.0171202,64.2245788 33.9508806,59.5132543 Z M38.628603,54.8350642 C43.3407072,51.9020834 49.3625954,51.9005241 54.0731403,54.8350642 L46.3508717,62.5573328 Z M86.5405642,25.3779631 L27.5437764,25.3779631 L27.5437764,37.3427077 L86.5405642,37.3427077 L86.5405642,25.3779631 Z" id="path-nyx7b258b4-2"></path>
        <filter x="-26.5%" y="-26.5%" width="153.1%" height="153.1%" filterUnits="objectBoundingBox" id="filter-nyx7b258b4-3">
            <feOffset dx="0" dy="0" in="SourceAlpha" result="shadowOffsetOuter1"></feOffset>
            <feGaussianBlur stdDeviation="10" in="shadowOffsetOuter1" result="shadowBlurOuter1"></feGaussianBlur>
            <feColorMatrix values="0 0 0 0 0.199008696   0 0 0 0 0.382782154   0 0 0 0 0.608978493  0 0 0 0.594910948 0" type="matrix" in="shadowBlurOuter1"></feColorMatrix>
        </filter>
    </defs>
    <g id="页面-1" stroke="none" stroke-width="1" fill="none" fill-rule="evenodd">
        <g id="功能" transform="translate(-304, -521)">
            <g id="编组" transform="translate(304, 521)">
                <g transform="translate(32, 13)"></g>
                <g id="形状结合" fill-rule="nonzero">
                    <use fill="black" fill-opacity="1" filter="url(#filter-nyx7b258b4-3)" xlink:href="#path-nyx7b258b4-2"></use>
                    <use fill="url(#linearGradient-nyx7b258b4-1)" xlink:href="#path-nyx7b258b4-2"></use>
                </g>
            </g>
        </g>
    </g>
</svg>