<?xml version="1.0" standalone="no"?><!DOCTYPE svg PUBLIC "-//W3C//DTD SVG 1.1//EN" "http://www.w3.org/Graphics/SVG/1.1/DTD/svg11.dtd"><svg t="1755076317831" class="icon" viewBox="0 0 1024 1024" version="1.1" xmlns="http://www.w3.org/2000/svg" p-id="9745" width="32" height="32" xmlns:xlink="http://www.w3.org/1999/xlink"><path d="M853.76 170.666667C900.608 170.666667 938.666667 208.853333 938.666667 255.744v512.512A85.205333 85.205333 0 0 1 853.76 853.333333H170.24C123.392 853.333333 85.333333 815.146667 85.333333 768.256V255.744C85.333333 208.768 123.648 170.666667 170.24 170.666667h683.52zM853.333333 256H170.666667v512h682.666666V256z m-213.333333 85.333333c51.2 0 92.245333 42.24 92.245333 102.912 0 23.253333-13.994667 56.832-30.805333 81.578667-9.856 12.373333-5.546667 23.125333 1.621333 26.965333l40.362667 22.314667 0.981333 0.554667c15.658667 8.661333 27.136 15.146667 34.858667 19.754666 20.224 13.525333 29.866667 23.552 31.402667 41.258667v44.032c0 1.450667-0.682667 1.962667-1.536 1.962667h-338.261334c-0.554667 0-1.536-0.853333-1.536-1.962667v-44.032c0-16.725333 9.642667-26.88 31.061334-41.173333a2107.776 2107.776 0 0 1 75.605333-42.24c7.253333-4.224 11.477333-14.506667 0.810667-28.074667-15.744-23.253333-29.525333-57.258667-29.525334-80.938667C547.285333 383.018667 587.946667 341.333333 640 341.333333z m-256.426667 170.666667c22.101333 0 40.32 16.341333 42.794667 37.674667L426.666667 554.666667a42.666667 42.666667 0 0 1-43.093334 42.666666H299.093333a42.666667 42.666667 0 1 1 0-85.333333h84.48z m0-170.666667c22.101333 0 40.32 16.341333 42.794667 37.674667L426.666667 384a42.666667 42.666667 0 0 1-43.093334 42.666667H299.093333a42.666667 42.666667 0 1 1 0-85.333334h84.48z" fill="#1296db" p-id="9746"></path></svg>