<svg width="56px" height="56px" viewBox="0 0 56 56" version="1.1" xmlns="http://www.w3.org/2000/svg" xmlns:xlink="http://www.w3.org/1999/xlink">
<g id="页面-1" stroke="none" stroke-width="1" fill="none" fill-rule="evenodd">
<g id="总行金库" transform="translate(-663, -426)" fill-rule="nonzero">
<g id="编组-4备份" transform="translate(154, 426)">
<g id="扫描" transform="translate(509, 0)">
<path d="M45.8181818,56 L38.3090909,56 C36.9090909,56 35.7636364,54.8519362 35.7636364,53.4487471 C35.7636364,52.045558 36.9090909,50.8974943 38.3090909,50.8974943 L45.6909091,50.8974943 C48.4909091,50.8974943 50.7818181,48.6013667 50.7818181,45.7949886 L50.7818181,38.2687927 C50.7818181,36.8656036 51.9272727,35.7175399 53.3272727,35.7175399 C54.7272728,35.7175399 55.8727273,36.8656036 55.8727273,38.2687927 L55.8727273,45.7949886 C56,51.4077449 51.4181818,56 45.8181818,56 L45.8181818,56 Z M17.9454545,56 L10.1818182,56 C4.58181819,56 0,51.4077449 0,45.7949886 L0,38.3963554 C0,36.9931663 1.14545453,35.8451025 2.54545453,35.8451025 C3.94545453,35.8451025 5.09090906,36.9931663 5.09090906,38.3963554 L5.09090906,45.7949886 C5.09090906,48.6013667 7.38181813,50.8974943 10.1818182,50.8974943 L17.9454545,50.8974943 C19.3454545,50.8974943 20.4909091,52.045558 20.4909091,53.4487471 C20.4909091,54.8519362 19.3454546,56 17.9454545,56 L17.9454545,56 Z M53.4545455,20.2824601 C52.0545455,20.2824601 50.9090909,19.1343964 50.9090909,17.7312073 L50.9090909,10.2050114 C50.9090909,7.39863326 48.6181818,5.10250573 45.8181818,5.10250573 L38.3090909,5.10250573 C36.9090909,5.10250573 35.7636364,3.95444196 35.7636364,2.5512529 C35.7636364,1.14806383 36.9090909,0 38.3090909,0 L45.8181818,0 C51.4181818,0 56,4.59225513 56,10.2050114 L56,17.7312073 C56,19.1343964 54.8545455,20.2824601 53.4545455,20.2824601 L53.4545455,20.2824601 Z M2.54545453,20.2824601 C1.14545453,20.2824601 0,19.1343964 0,17.7312073 L0,10.2050114 C0,4.59225513 4.58181819,0 10.1818182,0 L17.8181818,0 C19.2181818,0 20.3636364,1.14806377 20.3636364,2.5512529 C20.3636364,3.95444202 19.2181818,5.10250573 17.8181818,5.10250573 L10.1818182,5.10250573 C7.38181819,5.10250573 5.09090913,7.39863326 5.09090906,10.2050114 L5.09090906,17.7312073 C5.09090906,19.1343964 3.94545453,20.2824601 2.54545453,20.2824601 L2.54545453,20.2824601 Z" id="形状" fill="#2196F3"></path>
<path d="M51.45,28 L5.54999998,28 C4.14749999,28 3,26.875 3,25.5 C3,24.125 4.14749999,23 5.54999998,23 L51.45,23 C52.8524999,23 54,24.125 54,25.5 C54,26.875 52.8525,28 51.45,28 Z" id="路径" fill="#DE8B12"></path>
</g>
</g>
</g>
</g>
</svg>