
<svg width="156px" height="156px" viewBox="0 0 156 156" version="1.1" xmlns="http://www.w3.org/2000/svg" xmlns:xlink="http://www.w3.org/1999/xlink">
    <defs>
        <linearGradient x1="50%" y1="0%" x2="50%" y2="100%" id="linearGradient-wpfi7eicsn-1">
            <stop stop-color="#EEFDFF" offset="0%"></stop>
            <stop stop-color="#D0F2FB" offset="100%"></stop>
        </linearGradient>
        <path d="M276.457498,274.75371 C280.454938,273.014525 284.072054,272 288.004758,272 C291.937462,272 295.554578,273.014525 299.552018,274.75371 C303.436169,276.436533 307.92722,278.924534 313.583516,282.056678 L335.933573,294.43227 C339.040895,296.155352 341.646513,298.321282 343.434841,301.236028 C345.231262,304.166877 346,307.516419 346,311.292706 L346,311.646985 C346,313.015788 346,314.408746 345.676321,315.648721 C344.834754,318.788917 342.844127,320.801863 340.400348,321.880802 C338.20742,322.855068 335.820285,323 334.023865,323 L241.98565,323 C240.18923,323 237.802095,322.855068 235.609168,321.880802 C232.970224,320.737661 231.020947,318.4316 230.341287,315.648721 C230.062799,314.333934 229.954027,312.989166 230.017608,311.646985 L230.017608,311.292706 C230.017608,307.524471 230.778254,304.166877 232.582766,301.227976 C234.363002,298.321282 236.968621,296.155352 240.075942,294.43227 L262.434091,282.056678 C268.090388,278.924534 272.58953,276.436533 276.46559,274.75371 L276.457498,274.75371 Z M284,304.003748 C284,306.762361 286.189159,308.996237 288.883508,308.996237 L288.927437,308.996237 C290.715923,309.067179 292.39902,308.130722 293.313866,306.555674 C294.228711,304.980626 294.228711,303.019374 293.313866,301.444326 C292.39902,299.869278 290.715923,298.932821 288.927437,299.003763 L288.883508,299.003763 C286.186421,299.003763 284,301.242333 284,304.003748 L284,304.003748 Z M250.231617,366 C239.063764,366 230,373.382827 230,382.497938 C230,385.533558 233.018557,388 236.749267,388 L339.250733,388 C342.97335,388 346,385.533558 346,382.497938 C346,373.382827 336.936236,366 325.768383,366 L250.231617,366 Z M249.539133,358.842184 L267.815653,358.842184 C268.838287,358.842184 269.353695,358.842184 269.672757,358.516662 C270,358.199279 270,357.69472 270,356.669328 L270,331.172856 C270,330.147463 270,329.634767 269.672757,329.317383 C269.353695,329 268.838287,329 267.815653,329 L241.030815,329 C240.467404,329.021157 240.016814,329.472933 240,330.033531 L240,357.418027 C240,358.801494 240,359.501365 240.409054,359.826886 C240.83447,360.152408 241.554404,359.981509 243.002454,359.623435 C245.144388,359.101251 247.341994,358.838926 249.547314,358.842184 L249.539133,358.842184 Z M332.997546,359.623435 C330.855612,359.101251 328.658006,358.838926 326.452686,358.842184 L308.184347,358.842184 C307.161713,358.842184 306.646305,358.842184 306.327243,358.516662 C306,358.199279 306,357.69472 306,356.669328 L306,331.172856 C306,330.147463 306,329.634767 306.327243,329.317383 C306.646305,329 307.161713,329 308.184347,329 L334.969185,329 C335.54186,329.024414 335.975457,329.463868 336,330.033531 L336,357.418027 C336,358.809632 336,359.501365 335.590946,359.826886 C335.16553,360.152408 334.445596,359.981509 332.997546,359.623435 L332.997546,359.623435 Z" id="path-wpfi7eicsn-2"></path>
        <filter x="-25.9%" y="-25.9%" width="151.7%" height="151.7%" filterUnits="objectBoundingBox" id="filter-wpfi7eicsn-3">
            <feOffset dx="0" dy="0" in="SourceAlpha" result="shadowOffsetOuter1"></feOffset>
            <feGaussianBlur stdDeviation="10" in="shadowOffsetOuter1" result="shadowBlurOuter1"></feGaussianBlur>
            <feColorMatrix values="0 0 0 0 0.199008696   0 0 0 0 0.531503885   0 0 0 0 0.608978493  0 0 0 0.594910948 0" type="matrix" in="shadowBlurOuter1"></feColorMatrix>
        </filter>
    </defs>
    <g id="页面-1" stroke="none" stroke-width="1" fill="none" fill-rule="evenodd">
        <g id="功能" transform="translate(-775, -495)" fill-rule="nonzero">
            <g id="形状" transform="translate(565, 243)">
                <use fill="black" fill-opacity="1" filter="url(#filter-wpfi7eicsn-3)" xlink:href="#path-wpfi7eicsn-2"></use>
                <use fill="url(#linearGradient-wpfi7eicsn-1)" xlink:href="#path-wpfi7eicsn-2"></use>
            </g>
        </g>
    </g>
</svg>