<svg width="60px" height="60px" viewBox="0 0 60 60" version="1.1" xmlns="http://www.w3.org/2000/svg" xmlns:xlink="http://www.w3.org/1999/xlink">
    <defs>
        <linearGradient x1="100%" y1="50%" x2="0%" y2="50%" id="linearGradient-8iu-n26nhu-1">
            <stop stop-color="#29A8FF" offset="0%"></stop>
            <stop stop-color="#0489FE" offset="100%"></stop>
        </linearGradient>
    </defs>
    <g id="页面-1" stroke="none" stroke-width="1" fill="none" fill-rule="evenodd">
        <g id="画板" transform="translate(-180, -983)">
            <g id="编组备份" transform="translate(125, 944)">
                <g id="密码" transform="translate(55, 39)">
                    <rect id="矩形" fill="#000000" fill-rule="nonzero" opacity="0" x="0" y="0" width="60" height="60"></rect>
                    <path d="M30.6194913,57.2727273 C18.2787711,57.2727273 8.18181818,47.1578422 8.18181818,34.7952048 L8.18181818,32.7972028 C8.18181818,27.5524476 12.4200453,23.1818182 17.7801562,23.1818182 L44.8300176,23.1818182 C49.442206,23.1818182 53.1818182,26.9280719 53.1818182,31.5484516 L53.1818182,34.7952048 C53.0571645,47.1578422 42.9602115,57.2727273 30.6194913,57.2727273 Z M17.6555024,26.9280719 C14.4145051,26.9280719 11.7967767,29.5504496 11.7967767,32.7972028 L11.7967767,34.7952048 C11.7967767,45.1598402 20.1485772,53.5264735 30.4948376,53.5264735 C40.841098,53.5264735 49.1928986,45.1598402 49.1928986,34.7952048 L49.1928986,31.6733267 C49.1928986,29.0509491 47.073785,27.0529471 44.5807101,27.0529471 L17.6555024,27.0529471 L17.6555024,26.9280719 Z" id="形状" fill="#999999" fill-rule="nonzero"></path>
                    <path d="M41.7312834,24.5454545 C40.7152406,24.5454545 39.8262032,23.6874362 39.8262032,22.7068437 L39.8262032,15.2298264 C39.8262032,10.3268641 35.7620321,6.40449439 30.6818182,6.40449439 C25.6016043,6.40449439 21.5374332,10.3268642 21.5374332,15.2298264 L21.5374332,22.7068437 C21.5374332,23.6874362 20.6483957,24.5454545 19.6323529,24.5454545 C18.6163101,24.5454545 17.7272727,23.6874362 17.7272727,22.7068437 L17.7272727,15.2298264 C17.7272727,8.36567925 23.5695187,2.72727273 30.6818182,2.72727273 C37.7941177,2.72727273 43.6363636,8.36567925 43.6363636,15.2298264 L43.6363636,22.7068437 C43.6363636,23.6874362 42.7473262,24.5454545 41.7312834,24.5454545 Z" id="路径" fill="#999999" fill-rule="nonzero"></path>
                    <path d="M30.6818182,45 C29.5909091,45 28.6363636,44.0956938 28.6363636,43.062201 L28.6363636,34.6650718 C28.6363636,33.6315789 29.5909091,32.7272727 30.6818182,32.7272727 C31.7727273,32.7272727 32.7272727,33.6315789 32.7272727,34.6650718 L32.7272727,43.062201 C32.7272727,44.0956938 31.7727273,45 30.6818182,45 Z" id="路径" fill="url(#linearGradient-8iu-n26nhu-1)"></path>
                </g>
            </g>
        </g>
    </g>
</svg>