<svg width="282px" height="304px" viewBox="0 0 282 304" version="1.1" xmlns="http://www.w3.org/2000/svg" xmlns:xlink="http://www.w3.org/1999/xlink">
    <defs>
        <path d="M83.8307392,2.5388014 L16.7641275,17.7665118 C6.98042306,20.0759035 0,28.385635 0,38.3063328 L0,38.3063328 L0,79.3808769 C0,85.151807 4.88932672,90 10.9403736,90 L10.9403736,90 L271.049524,90 C277.100571,90 282,85.3812167 282,79.3808769 L282,79.3808769 L282,38.3063328 C281.762605,28.6150447 274.777131,20.0759035 264.998478,17.7665118 L264.998478,17.7665118 L197.931866,2.5388014 C196.997439,2.30429364 196.068063,1.84547411 195.133635,1.38155659 L195.133635,1.38155659 L140.881303,32.305993 L88.7200659,0 C87.3209507,1.15214682 85.6945425,2.07488388 83.8307392,2.5388014 L83.8307392,2.5388014 Z" id="path-29z6vstf-3-1"></path>
        <path d="M0,0 L0,38.0359185 C61.8326706,59.0947318 98,6.33765238 98,6.33765238 L98,6.33765238 L98,0 L0,0 Z" id="path-29z6vstf-3-3"></path>
        <path d="M0,0 L4.66483153,97.1858124 C5.13587316,106.329503 9.80576965,114.558825 17.281656,120.050091 L17.281656,120.050091 L39.2281436,135.826746 C44.8299934,139.711551 51.3739264,142 58.3737062,142 L58.3737062,142 L79.6212288,142 C86.3981502,142 93.1700066,139.943933 98.7718564,135.826746 L98.7718564,135.826746 L120.718344,120.050091 C128.427219,114.558825 132.864127,106.097122 133.330104,97.1858124 L133.330104,97.1858124 L138,0 L0,0 Z" id="path-29z6vstf-3-5"></path>
        <path d="M242.149756,30.2821853 C236.321096,35.3342835 233.055428,42.4386382 233.055428,49.5480602 L233.055428,49.5480602 L233.055428,64 L271.045354,64 C277.101499,64 282,59.4140934 282,53.6779097 L282,53.6779097 L282,12.850673 C282,8.03167063 280.372221,3.67885986 277.334038,0 L277.334038,0 L242.149756,30.2821853 Z M0,12.850673 L0,53.6779097 C0,59.4140934 4.66090635,64 10.2570271,64 L10.2570271,64 L46.6090635,64 L46.6090635,49.5480602 C46.6090635,42.4386382 43.580991,35.3342835 37.9899254,30.2821853 L37.9899254,30.2821853 L4.42836656,0 C1.63283379,3.67885986 0,8.03167063 0,12.850673 L0,12.850673 Z" id="path-29z6vstf-3-7"></path>
        <path d="M0,0 L0,10.0523825 C0,13.2533922 2.79392625,16 6.30151844,16 L6.30151844,16 L21.6984816,16 C25.2010123,16 28,13.2533922 28,10.0523825 L28,10.0523825 L28,0 L0,0 Z" id="path-29z6vstf-3-9"></path>
        <path d="M114.626808,1.29045452 L65.0050536,44.1829448 C65.0050536,44.1829448 78.9834396,51.0334436 95.9889597,64.4975218 L95.9889597,64.4975218 C99.4810294,67.2346968 104.842948,66.0904266 106.707744,62.2140222 L106.707744,62.2140222 L130,12.9247086 L122.545872,2.20788703 C121.610947,0.766207371 119.983673,0 118.280594,0 L118.280594,0 C117.022236,0 115.718395,0.418389551 114.626808,1.29045452 L114.626808,1.29045452 Z M7.45412844,2.20788703 L0,12.9247086 L23.2973099,62.2140222 C25.1621054,66.0904266 30.5240243,67.2346968 34.0160939,64.4975218 L34.0160939,64.4975218 C51.0266677,51.0334436 65.0050536,44.1829448 65.0050536,44.1829448 L65.0050536,44.1829448 L15.378246,1.29045452 C14.2866584,0.418389551 12.9828176,0 11.7244596,0 L11.7244596,0 C10.0213808,0 8.39410667,0.766207371 7.45412844,2.20788703 L7.45412844,2.20788703 Z" id="path-29z6vstf-3-11"></path>
        <path d="M0,3.25013175 L5.06974373,37.9605232 C28.068217,42.3278877 31.2916958,77.5004072 31.7457772,87.611364 L31.7457772,87.611364 C31.7457772,89.4497197 32.439374,91.2931538 33.3625065,92.6693815 L33.3625065,92.6693815 L42.1048205,106 C42.1048205,106 39.1108773,84.1631773 52.9129552,69.4512528 L52.9129552,69.4512528 C52.9129552,69.2481196 56.5705558,0.0101566617 16.4666873,-7.99360578e-15 L16.4666873,-7.99360578e-15 C11.6414489,-7.99360578e-15 6.1824926,1.00043118 0,3.25013175 L0,3.25013175 Z" id="path-29z6vstf-3-13"></path>
        <path d="M0.105503275,11.8415368 L3.45704185,35.5346753 C3.94103733,38.7252977 6.81898893,41 10.4151274,41 L10.4151274,41 C13.5376788,41 16.4156305,39.1832576 17.1338173,36.4455628 L17.1338173,36.4455628 L23.6183158,13.2154167 C25.5334807,6.38124463 20.0169731,0 12.0961009,0 L12.0961009,0 C4.89861978,0 -0.857283428,5.46532466 0.105503275,11.8415368 L0.105503275,11.8415368 Z" id="path-29z6vstf-3-15"></path>
        <path d="M87.1694554,0.0301738011 C70.3467905,0.0301738011 38.5813428,5.03399582 21.991763,13.2312118 L21.991763,13.2312118 L29.9369252,18.4713952 C-6.27234093,44.4158352 0.50232865,88.5802221 0.50232865,88.5802221 L0.50232865,88.5802221 C11.2445123,99.0455021 11.2445123,125 11.2445123,125 L11.2445123,125 L21.991763,114.529691 C21.991763,114.529691 17.7911638,84.4816141 38.3482576,72.8697296 L38.3482576,72.8697296 C57.2686886,62.1731172 73.8532013,67.6345752 90.9038843,67.6345752 L90.9038843,67.6345752 C136.223738,67.6345752 149.073822,51.2451722 146.737904,31.2147972 L146.737904,31.2147972 C145.592746,20.9607338 129.879769,0.00502896685 89.7333917,0 L89.7333917,0 C88.8871913,0 88.035924,0.0100579337 87.1694554,0.0301738011 L87.1694554,0.0301738011 Z" id="path-29z6vstf-3-17"></path>
        <path d="M0.504287369,71.0066748 C11.1875624,81.5711197 11.1875624,108 11.1875624,108 L11.1875624,108 L21.8758767,97.4304785 C21.8758767,97.4304785 17.6932737,66.8641534 37.9108677,55.1523926 L37.9108677,55.1523926 C56.7275417,44.1158221 72.9893004,49.8625552 89.7146729,49.8625552 L89.7146729,49.8625552 C96.9208443,49.8625552 103.421516,49.4005829 109,48.4817148 L109,48.4817148 C96.3917198,48.9030742 85.6983662,45.7251105 75.4635872,42.5471468 L75.4635872,42.5471468 C57.594298,36.9984018 41.1410466,31.4496569 18.3886944,45.0397669 L18.3886944,45.0397669 C18.3886944,45.0397669 12.81525,22.9767792 29.5456618,0 L29.5456618,0 C-6.23323087,26.1902792 0.504287369,71.0066748 0.504287369,71.0066748 L0.504287369,71.0066748 Z" id="path-29z6vstf-3-19"></path>
        <path d="M0.383523674,13.5360825 L6.86262792,37.3298969 C7.58079369,40.1340206 10.4586609,42 13.5759167,42 L13.5759167,42 C17.1771537,42 20.0550209,39.6649485 20.5337981,36.3969072 L20.5337981,36.3969072 L23.8956466,12.1340206 C24.8532009,5.60309278 19.0922624,0 11.8949924,0 L11.8949924,0 C3.97955663,0 -1.53678915,6.53608247 0.383523674,13.5360825 L0.383523674,13.5360825 Z" id="path-29z6vstf-3-21"></path>
        <path d="M5.36514823,0 C2.33333333,0 0,2.41961131 0,5.5 L0,5.5 L0,11 L49,11 L49,5.5 C48.7671728,2.41961131 46.4338395,0 43.4020246,0 L43.4020246,0 L5.36514823,0 Z" id="path-29z6vstf-3-23"></path>
    </defs>
    <g id="页面-1" stroke="none" stroke-width="1" fill="none" fill-rule="evenodd">
        <g id="画板备份" transform="translate(-408, -932)">
            <g id="编组" transform="translate(408, 932)">
                <polygon id="Fill-1" fill="#FEE9E8" points="91 169 91 207.744477 139.997469 252 189 207.744477 189 169"></polygon>
                <g transform="translate(0, 214)">
                    <mask id="mask-29z6vstf-3-2" fill="white">
                        <use xlink:href="#path-29z6vstf-3-1"></use>
                    </mask>
                    <g id="Clip-3"></g>
                    <polygon id="Fill-2" fill="#EDF1F6" mask="url(#mask-29z6vstf-3-2)" points="-132.330032 223.557267 414.324981 223.557267 414.324981 -133.557267 -132.330032 -133.557267"></polygon>
                </g>
                <g transform="translate(91, 171)">
                    <mask id="mask-29z6vstf-3-4" fill="white">
                        <use xlink:href="#path-29z6vstf-3-3"></use>
                    </mask>
                    <g id="Clip-5"></g>
                    <polygon id="Fill-4" fill="#F5DDDD" mask="url(#mask-29z6vstf-3-4)" points="-132.598358 174.047841 230.593296 174.047841 230.593296 -131.054848 -132.598358 -131.054848"></polygon>
                </g>
                <g transform="translate(75, 55)">
                    <mask id="mask-29z6vstf-3-6" fill="white">
                        <use xlink:href="#path-29z6vstf-3-5"></use>
                    </mask>
                    <g id="Clip-7"></g>
                    <polygon id="Fill-6" fill="#FFEEEE" mask="url(#mask-29z6vstf-3-6)" points="-132.696983 274.351133 270.702048 274.351133 270.702048 -132.351133 -132.696983 -132.351133"></polygon>
                </g>
                <g transform="translate(0, 240)">
                    <mask id="mask-29z6vstf-3-8" fill="white">
                        <use xlink:href="#path-29z6vstf-3-7"></use>
                    </mask>
                    <g id="Clip-9"></g>
                    <polygon id="Fill-8" fill="#E3E9F0" mask="url(#mask-29z6vstf-3-8)" points="-132.441524 196.758195 414.441524 196.758195 414.441524 -132.74806 -132.441524 -132.74806"></polygon>
                </g>
                <polygon id="Fill-10" fill="#C7CDE5" points="129.497469 258 126 304 154 304 150.497469 258"></polygon>
                <g transform="translate(126, 247)">
                    <mask id="mask-29z6vstf-3-10" fill="white">
                        <use xlink:href="#path-29z6vstf-3-9"></use>
                    </mask>
                    <g id="Clip-12"></g>
                    <polygon id="Fill-11" fill="#C7CDE5" mask="url(#mask-29z6vstf-3-10)" points="-132.605206 148.271379 160.605206 148.271379 160.605206 -132.276428 -132.605206 -132.276428"></polygon>
                </g>
                <g transform="translate(75, 204)">
                    <mask id="mask-29z6vstf-3-12" fill="white">
                        <use xlink:href="#path-29z6vstf-3-11"></use>
                    </mask>
                    <g id="Clip-14"></g>
                    <polygon id="Fill-13" fill="#E3E9F0" mask="url(#mask-29z6vstf-3-12)" points="-132.400482 198.064605 262.405536 198.064605 262.405536 -132.064914 -132.400482 -132.064914"></polygon>
                </g>
                <g transform="translate(173, 20)">
                    <mask id="mask-29z6vstf-3-14" fill="white">
                        <use xlink:href="#path-29z6vstf-3-13"></use>
                    </mask>
                    <g id="Clip-16"></g>
                    <polygon id="Fill-15" fill="#9499AD" mask="url(#mask-29z6vstf-3-14)" points="-130.725538 239.04719 183.733301 239.04719 183.733301 -133.04719 -130.725538 -133.04719"></polygon>
                </g>
                <g transform="translate(201, 112)">
                    <mask id="mask-29z6vstf-3-16" fill="white">
                        <use xlink:href="#path-29z6vstf-3-15"></use>
                    </mask>
                    <g id="Clip-18"></g>
                    <polygon id="Fill-17" fill="#FFEEEE" mask="url(#mask-29z6vstf-3-16)" points="-136.349996 172.852216 160.344436 172.852216 160.344436 -131.84215 -136.349996 -131.84215"></polygon>
                </g>
                <g transform="translate(54, 0)">
                    <mask id="mask-29z6vstf-3-18" fill="white">
                        <use xlink:href="#path-29z6vstf-3-17"></use>
                    </mask>
                    <g id="Clip-20"></g>
                    <polygon id="Fill-19" fill="#9499AD" mask="url(#mask-29z6vstf-3-18)" points="-132.751419 256.753902 279.748432 256.753902 279.748432 -131.753902 -132.751419 -131.753902"></polygon>
                </g>
                <g transform="translate(55, 18)">
                    <mask id="mask-29z6vstf-3-20" fill="white">
                        <use xlink:href="#path-29z6vstf-3-19"></use>
                    </mask>
                    <g id="Clip-22"></g>
                    <polygon id="Fill-21" fill="#9499AD" mask="url(#mask-29z6vstf-3-20)" points="-132.023755 241.00235 241.019075 241.00235 241.019075 -133.00235 -132.023755 -133.00235"></polygon>
                </g>
                <g transform="translate(61, 109)">
                    <mask id="mask-29z6vstf-3-22" fill="white">
                        <use xlink:href="#path-29z6vstf-3-21"></use>
                    </mask>
                    <g id="Clip-24"></g>
                    <polygon id="Fill-23" fill="#FFEEEE" mask="url(#mask-29z6vstf-3-22)" points="-136.34379 177.046392 160.341939 177.046392 160.341939 -135.041237 -136.34379 -135.041237"></polygon>
                </g>
                <g transform="translate(168, 293)">
                    <mask id="mask-29z6vstf-3-24" fill="white">
                        <use xlink:href="#path-29z6vstf-3-23"></use>
                    </mask>
                    <g id="Clip-26"></g>
                    <polygon id="Fill-25" fill="#E3E9F0" mask="url(#mask-29z6vstf-3-24)" points="-132.605206 138.287102 181.610268 138.287102 181.610268 -127.291961 -132.605206 -127.291961"></polygon>
                </g>
            </g>
        </g>
    </g>
</svg>