<svg width="69px" height="69px" viewBox="0 0 69 69" version="1.1" xmlns="http://www.w3.org/2000/svg" xmlns:xlink="http://www.w3.org/1999/xlink">
    <defs>
        <linearGradient x1="100%" y1="50%" x2="0%" y2="50%" id="linearGradient-4nl8j68o42-1">
            <stop stop-color="#29A8FF" offset="0%"></stop>
            <stop stop-color="#0489FE" offset="100%"></stop>
        </linearGradient>
    </defs>
    <g id="页面-1" stroke="none" stroke-width="1" fill="none" fill-rule="evenodd">
        <g id="画板备份" transform="translate(-189, -746)">
            <g id="编组-2备份-2" transform="translate(136, 716)">
                <g id="用户" transform="translate(53, 30)">
                    <rect id="矩形" fill="#000000" fill-rule="nonzero" opacity="0" x="0" y="0" width="69" height="69"></rect>
                    <path d="M55.7090573,51.4933196 C51.2075556,46.56855 45.544797,43.3083939 39.3470773,42.0029501 C42.5829394,39.8133961 44.7423554,35.9868571 44.7423554,31.6284705 C44.7423554,24.8456882 39.5297469,19.32 33.116738,19.32 C26.7037291,19.32 21.4911207,24.8387811 21.4911207,31.6284705 C21.4911207,35.9868571 23.6505367,39.8133961 26.8863988,42.0029501 C20.695203,43.3083939 15.0324444,46.56855 10.5309427,51.4933196 C9.36968576,52.7642279 9.36968576,54.8294538 10.5309427,56.1003621 C16.5133732,62.6413956 24.5312653,66.24 33.123262,66.24 C41.7152586,66.24 49.7331507,62.6413956 55.7090573,56.1003621 C56.8703142,54.8294538 56.8703142,52.7642279 55.7090573,51.4933196 Z M25.9860984,31.6284705 C25.9860984,27.463483 29.1893409,24.0720919 33.123262,24.0720919 C37.057183,24.0720919 40.2604255,27.463483 40.2604255,31.6284705 C40.2604255,35.793458 37.057183,39.1848491 33.123262,39.1848491 C29.1893409,39.1848491 25.9860984,35.8003651 25.9860984,31.6284705 Z M33.123262,61.4879081 C26.2079116,61.4879081 19.7231396,58.7665067 14.7192964,53.7933873 C19.7231396,48.8202679 26.2079116,46.0988665 33.123262,46.0988665 C40.0386123,46.0988665 46.5168604,48.8202679 51.5272275,53.7933873 C46.5233843,58.7665067 40.0386123,61.4879081 33.123262,61.4879081 Z" id="形状" fill="#999999" fill-rule="nonzero"></path>
                    <path d="M62.5214597,37.26 C61.3153154,37.26 60.3056778,36.3746616 60.2108126,35.2308301 C59.1198619,21.8861303 47.390448,11.3460792 33.12,11.3460792 C18.849552,11.3460792 7.12013811,21.8861303 6.02918743,35.2308301 C5.93432215,36.3811239 4.92468457,37.26 3.71854033,37.26 C2.34976991,37.26 1.27914751,36.1420179 1.38756496,34.8430907 C2.68179838,19.2301149 16.4169352,6.9 33.12,6.9 C49.8230648,6.9 63.5582016,19.2301149 64.852435,34.8430907 C64.9608525,36.1420179 63.8902301,37.26 62.5214597,37.26 Z" id="路径" fill="url(#linearGradient-4nl8j68o42-1)"></path>
                </g>
            </g>
        </g>
    </g>
</svg>
